<mxfile host="app.diagrams.net" modified="2023-07-20T21:59:01.397Z" agent="Mozilla/5.0 (Macintosh; Intel Mac OS X 10.15; rv:109.0) Gecko/20100101 Firefox/116.0" etag="NyZP6PtgiRk6wMkRL79R" version="21.6.3" type="device">
  <diagram name="Page-1" id="7H7-iU8T7uSPTgL-joCV">
    <mxGraphModel dx="2009" dy="1531" grid="0" gridSize="10" guides="1" tooltips="1" connect="1" arrows="1" fold="1" page="0" pageScale="1" pageWidth="827" pageHeight="1169" math="0" shadow="0">
      <root>
        <mxCell id="0" />
        <mxCell id="1" parent="0" />
        <mxCell id="VEAYyaZn8zi7UT8q09-s-1" value="Branches" style="rounded=1;whiteSpace=wrap;html=1;hachureGap=4;fontFamily=Helvetica;fontSize=20;" vertex="1" parent="1">
          <mxGeometry x="60" y="100" width="160" height="60" as="geometry" />
        </mxCell>
        <mxCell id="VEAYyaZn8zi7UT8q09-s-2" value="Personal Info" style="rounded=1;whiteSpace=wrap;html=1;hachureGap=4;fontFamily=Helvetica;fontSize=20;" vertex="1" parent="1">
          <mxGeometry x="60" y="360" width="160" height="60" as="geometry" />
        </mxCell>
        <mxCell id="VEAYyaZn8zi7UT8q09-s-4" value="Company" style="text;html=1;strokeColor=none;fillColor=none;align=center;verticalAlign=middle;whiteSpace=wrap;rounded=1;fontSize=20;fontFamily=Helvetica;" vertex="1" parent="1">
          <mxGeometry x="110" y="40" width="60" height="30" as="geometry" />
        </mxCell>
        <mxCell id="VEAYyaZn8zi7UT8q09-s-7" value="Employee" style="text;html=1;strokeColor=none;fillColor=none;align=center;verticalAlign=middle;whiteSpace=wrap;rounded=1;fontSize=20;fontFamily=Helvetica;" vertex="1" parent="1">
          <mxGeometry x="110" y="310" width="60" height="30" as="geometry" />
        </mxCell>
        <mxCell id="VEAYyaZn8zi7UT8q09-s-8" value="mobile" style="rounded=1;whiteSpace=wrap;html=1;hachureGap=4;fontFamily=Helvetica;fontSize=20;" vertex="1" parent="1">
          <mxGeometry x="60" y="440" width="160" height="60" as="geometry" />
        </mxCell>
        <mxCell id="VEAYyaZn8zi7UT8q09-s-9" value="" style="swimlane;startSize=0;hachureGap=4;fontFamily=Helvetica;fontSize=20;rounded=1;" vertex="1" parent="1">
          <mxGeometry x="30" y="10" width="240" height="230" as="geometry">
            <mxRectangle x="30" y="10" width="50" height="40" as="alternateBounds" />
          </mxGeometry>
        </mxCell>
        <mxCell id="VEAYyaZn8zi7UT8q09-s-13" value="Departments" style="rounded=1;whiteSpace=wrap;html=1;hachureGap=4;fontFamily=Helvetica;fontSize=20;" vertex="1" parent="VEAYyaZn8zi7UT8q09-s-9">
          <mxGeometry x="30" y="160" width="160" height="60" as="geometry" />
        </mxCell>
        <mxCell id="VEAYyaZn8zi7UT8q09-s-10" value="" style="swimlane;startSize=0;hachureGap=4;fontFamily=Helvetica;fontSize=20;rounded=1;" vertex="1" parent="1">
          <mxGeometry x="30" y="290" width="240" height="530" as="geometry">
            <mxRectangle x="30" y="10" width="50" height="40" as="alternateBounds" />
          </mxGeometry>
        </mxCell>
        <mxCell id="VEAYyaZn8zi7UT8q09-s-11" value="Working Info" style="rounded=1;whiteSpace=wrap;html=1;hachureGap=4;fontFamily=Helvetica;fontSize=20;" vertex="1" parent="VEAYyaZn8zi7UT8q09-s-10">
          <mxGeometry x="30" y="295" width="160" height="60" as="geometry" />
        </mxCell>
        <mxCell id="VEAYyaZn8zi7UT8q09-s-12" value="Salary Info" style="rounded=1;whiteSpace=wrap;html=1;hachureGap=4;fontFamily=Helvetica;fontSize=20;" vertex="1" parent="VEAYyaZn8zi7UT8q09-s-10">
          <mxGeometry x="30" y="370" width="160" height="60" as="geometry" />
        </mxCell>
        <mxCell id="VEAYyaZn8zi7UT8q09-s-161" value="address" style="rounded=1;whiteSpace=wrap;html=1;hachureGap=4;fontFamily=Helvetica;fontSize=20;" vertex="1" parent="VEAYyaZn8zi7UT8q09-s-10">
          <mxGeometry x="30" y="220" width="160" height="60" as="geometry" />
        </mxCell>
        <mxCell id="VEAYyaZn8zi7UT8q09-s-212" value="contract Info" style="rounded=1;whiteSpace=wrap;html=1;hachureGap=4;fontFamily=Helvetica;fontSize=20;" vertex="1" parent="VEAYyaZn8zi7UT8q09-s-10">
          <mxGeometry x="30" y="450" width="160" height="60" as="geometry" />
        </mxCell>
        <mxCell id="VEAYyaZn8zi7UT8q09-s-14" value="com_branch" style="shape=table;startSize=30;container=1;collapsible=1;childLayout=tableLayout;fixedRows=1;rowLines=0;fontStyle=1;align=center;resizeLast=1;html=1;hachureGap=4;fontFamily=Helvetica;fontSize=20;fillColor=#eeeeee;strokeColor=#36393d;rounded=1;" vertex="1" parent="1">
          <mxGeometry x="950" y="-120" width="310" height="120" as="geometry" />
        </mxCell>
        <mxCell id="VEAYyaZn8zi7UT8q09-s-15" value="" style="shape=tableRow;horizontal=0;startSize=0;swimlaneHead=0;swimlaneBody=0;fillColor=none;collapsible=0;dropTarget=0;points=[[0,0.5],[1,0.5]];portConstraint=eastwest;top=0;left=0;right=0;bottom=1;hachureGap=4;fontFamily=Helvetica;fontSize=20;rounded=1;" vertex="1" parent="VEAYyaZn8zi7UT8q09-s-14">
          <mxGeometry y="30" width="310" height="30" as="geometry" />
        </mxCell>
        <mxCell id="VEAYyaZn8zi7UT8q09-s-16" value="PK" style="shape=partialRectangle;connectable=0;fillColor=none;top=0;left=0;bottom=0;right=0;fontStyle=1;overflow=hidden;whiteSpace=wrap;html=1;hachureGap=4;fontFamily=Helvetica;fontSize=20;rounded=1;" vertex="1" parent="VEAYyaZn8zi7UT8q09-s-15">
          <mxGeometry width="30" height="30" as="geometry">
            <mxRectangle width="30" height="30" as="alternateBounds" />
          </mxGeometry>
        </mxCell>
        <mxCell id="VEAYyaZn8zi7UT8q09-s-17" value="UniqueID" style="shape=partialRectangle;connectable=0;fillColor=none;top=0;left=0;bottom=0;right=0;align=left;spacingLeft=6;fontStyle=0;overflow=hidden;whiteSpace=wrap;html=1;hachureGap=4;fontFamily=Helvetica;fontSize=20;rounded=1;" vertex="1" parent="VEAYyaZn8zi7UT8q09-s-15">
          <mxGeometry x="30" width="140" height="30" as="geometry">
            <mxRectangle width="140" height="30" as="alternateBounds" />
          </mxGeometry>
        </mxCell>
        <mxCell id="VEAYyaZn8zi7UT8q09-s-48" value="BIGSERIAL" style="shape=partialRectangle;connectable=0;fillColor=none;top=0;left=0;bottom=0;right=0;align=left;spacingLeft=6;fontStyle=0;overflow=hidden;whiteSpace=wrap;html=1;hachureGap=4;fontFamily=Helvetica;fontSize=20;rounded=1;" vertex="1" parent="VEAYyaZn8zi7UT8q09-s-15">
          <mxGeometry x="170" width="140" height="30" as="geometry">
            <mxRectangle width="140" height="30" as="alternateBounds" />
          </mxGeometry>
        </mxCell>
        <mxCell id="VEAYyaZn8zi7UT8q09-s-18" value="" style="shape=tableRow;horizontal=0;startSize=0;swimlaneHead=0;swimlaneBody=0;fillColor=none;collapsible=0;dropTarget=0;points=[[0,0.5],[1,0.5]];portConstraint=eastwest;top=0;left=0;right=0;bottom=0;hachureGap=4;fontFamily=Helvetica;fontSize=20;rounded=1;" vertex="1" parent="VEAYyaZn8zi7UT8q09-s-14">
          <mxGeometry y="60" width="310" height="30" as="geometry" />
        </mxCell>
        <mxCell id="VEAYyaZn8zi7UT8q09-s-19" value="" style="shape=partialRectangle;connectable=0;fillColor=none;top=0;left=0;bottom=0;right=0;editable=1;overflow=hidden;whiteSpace=wrap;html=1;hachureGap=4;fontFamily=Helvetica;fontSize=20;rounded=1;" vertex="1" parent="VEAYyaZn8zi7UT8q09-s-18">
          <mxGeometry width="30" height="30" as="geometry">
            <mxRectangle width="30" height="30" as="alternateBounds" />
          </mxGeometry>
        </mxCell>
        <mxCell id="VEAYyaZn8zi7UT8q09-s-20" value="name" style="shape=partialRectangle;connectable=0;fillColor=none;top=0;left=0;bottom=0;right=0;align=left;spacingLeft=6;overflow=hidden;whiteSpace=wrap;html=1;hachureGap=4;fontFamily=Helvetica;fontSize=20;rounded=1;" vertex="1" parent="VEAYyaZn8zi7UT8q09-s-18">
          <mxGeometry x="30" width="140" height="30" as="geometry">
            <mxRectangle width="140" height="30" as="alternateBounds" />
          </mxGeometry>
        </mxCell>
        <mxCell id="VEAYyaZn8zi7UT8q09-s-49" value="TEXT" style="shape=partialRectangle;connectable=0;fillColor=none;top=0;left=0;bottom=0;right=0;align=left;spacingLeft=6;overflow=hidden;whiteSpace=wrap;html=1;hachureGap=4;fontFamily=Helvetica;fontSize=20;rounded=1;" vertex="1" parent="VEAYyaZn8zi7UT8q09-s-18">
          <mxGeometry x="170" width="140" height="30" as="geometry">
            <mxRectangle width="140" height="30" as="alternateBounds" />
          </mxGeometry>
        </mxCell>
        <mxCell id="VEAYyaZn8zi7UT8q09-s-101" value="" style="shape=tableRow;horizontal=0;startSize=0;swimlaneHead=0;swimlaneBody=0;fillColor=none;collapsible=0;dropTarget=0;points=[[0,0.5],[1,0.5]];portConstraint=eastwest;top=0;left=0;right=0;bottom=0;hachureGap=4;fontFamily=Helvetica;fontSize=20;rounded=1;" vertex="1" parent="VEAYyaZn8zi7UT8q09-s-14">
          <mxGeometry y="90" width="310" height="30" as="geometry" />
        </mxCell>
        <mxCell id="VEAYyaZn8zi7UT8q09-s-102" value="" style="shape=partialRectangle;connectable=0;fillColor=none;top=0;left=0;bottom=0;right=0;editable=1;overflow=hidden;whiteSpace=wrap;html=1;hachureGap=4;fontFamily=Helvetica;fontSize=20;rounded=1;" vertex="1" parent="VEAYyaZn8zi7UT8q09-s-101">
          <mxGeometry width="30" height="30" as="geometry">
            <mxRectangle width="30" height="30" as="alternateBounds" />
          </mxGeometry>
        </mxCell>
        <mxCell id="VEAYyaZn8zi7UT8q09-s-103" value="created_at" style="shape=partialRectangle;connectable=0;fillColor=none;top=0;left=0;bottom=0;right=0;align=left;spacingLeft=6;overflow=hidden;whiteSpace=wrap;html=1;hachureGap=4;fontFamily=Helvetica;fontSize=20;rounded=1;" vertex="1" parent="VEAYyaZn8zi7UT8q09-s-101">
          <mxGeometry x="30" width="140" height="30" as="geometry">
            <mxRectangle width="140" height="30" as="alternateBounds" />
          </mxGeometry>
        </mxCell>
        <mxCell id="VEAYyaZn8zi7UT8q09-s-104" value="TIMESTAMP" style="shape=partialRectangle;connectable=0;fillColor=none;top=0;left=0;bottom=0;right=0;align=left;spacingLeft=6;overflow=hidden;whiteSpace=wrap;html=1;hachureGap=4;fontFamily=Helvetica;fontSize=20;rounded=1;" vertex="1" parent="VEAYyaZn8zi7UT8q09-s-101">
          <mxGeometry x="170" width="140" height="30" as="geometry">
            <mxRectangle width="140" height="30" as="alternateBounds" />
          </mxGeometry>
        </mxCell>
        <mxCell id="VEAYyaZn8zi7UT8q09-s-53" value="com_department" style="shape=table;startSize=30;container=1;collapsible=1;childLayout=tableLayout;fixedRows=1;rowLines=0;fontStyle=1;align=center;resizeLast=1;html=1;hachureGap=4;fontFamily=Helvetica;fontSize=20;fillColor=#eeeeee;strokeColor=#36393d;rounded=1;" vertex="1" parent="1">
          <mxGeometry x="960" y="180" width="350" height="150" as="geometry" />
        </mxCell>
        <mxCell id="VEAYyaZn8zi7UT8q09-s-54" value="" style="shape=tableRow;horizontal=0;startSize=0;swimlaneHead=0;swimlaneBody=0;fillColor=none;collapsible=0;dropTarget=0;points=[[0,0.5],[1,0.5]];portConstraint=eastwest;top=0;left=0;right=0;bottom=1;hachureGap=4;fontFamily=Helvetica;fontSize=20;rounded=1;" vertex="1" parent="VEAYyaZn8zi7UT8q09-s-53">
          <mxGeometry y="30" width="350" height="30" as="geometry" />
        </mxCell>
        <mxCell id="VEAYyaZn8zi7UT8q09-s-55" value="PK" style="shape=partialRectangle;connectable=0;fillColor=none;top=0;left=0;bottom=0;right=0;fontStyle=1;overflow=hidden;whiteSpace=wrap;html=1;hachureGap=4;fontFamily=Helvetica;fontSize=20;rounded=1;" vertex="1" parent="VEAYyaZn8zi7UT8q09-s-54">
          <mxGeometry width="30" height="30" as="geometry">
            <mxRectangle width="30" height="30" as="alternateBounds" />
          </mxGeometry>
        </mxCell>
        <mxCell id="VEAYyaZn8zi7UT8q09-s-56" value="UniqueID" style="shape=partialRectangle;connectable=0;fillColor=none;top=0;left=0;bottom=0;right=0;align=left;spacingLeft=6;fontStyle=0;overflow=hidden;whiteSpace=wrap;html=1;hachureGap=4;fontFamily=Helvetica;fontSize=20;rounded=1;" vertex="1" parent="VEAYyaZn8zi7UT8q09-s-54">
          <mxGeometry x="30" width="180" height="30" as="geometry">
            <mxRectangle width="180" height="30" as="alternateBounds" />
          </mxGeometry>
        </mxCell>
        <mxCell id="VEAYyaZn8zi7UT8q09-s-57" value="BIGSERIAL" style="shape=partialRectangle;connectable=0;fillColor=none;top=0;left=0;bottom=0;right=0;align=left;spacingLeft=6;fontStyle=0;overflow=hidden;whiteSpace=wrap;html=1;hachureGap=4;fontFamily=Helvetica;fontSize=20;rounded=1;" vertex="1" parent="VEAYyaZn8zi7UT8q09-s-54">
          <mxGeometry x="210" width="140" height="30" as="geometry">
            <mxRectangle width="140" height="30" as="alternateBounds" />
          </mxGeometry>
        </mxCell>
        <mxCell id="VEAYyaZn8zi7UT8q09-s-58" value="" style="shape=tableRow;horizontal=0;startSize=0;swimlaneHead=0;swimlaneBody=0;fillColor=none;collapsible=0;dropTarget=0;points=[[0,0.5],[1,0.5]];portConstraint=eastwest;top=0;left=0;right=0;bottom=0;hachureGap=4;fontFamily=Helvetica;fontSize=20;rounded=1;" vertex="1" parent="VEAYyaZn8zi7UT8q09-s-53">
          <mxGeometry y="60" width="350" height="30" as="geometry" />
        </mxCell>
        <mxCell id="VEAYyaZn8zi7UT8q09-s-59" value="" style="shape=partialRectangle;connectable=0;fillColor=none;top=0;left=0;bottom=0;right=0;editable=1;overflow=hidden;whiteSpace=wrap;html=1;hachureGap=4;fontFamily=Helvetica;fontSize=20;rounded=1;" vertex="1" parent="VEAYyaZn8zi7UT8q09-s-58">
          <mxGeometry width="30" height="30" as="geometry">
            <mxRectangle width="30" height="30" as="alternateBounds" />
          </mxGeometry>
        </mxCell>
        <mxCell id="VEAYyaZn8zi7UT8q09-s-60" value="name" style="shape=partialRectangle;connectable=0;fillColor=none;top=0;left=0;bottom=0;right=0;align=left;spacingLeft=6;overflow=hidden;whiteSpace=wrap;html=1;hachureGap=4;fontFamily=Helvetica;fontSize=20;rounded=1;" vertex="1" parent="VEAYyaZn8zi7UT8q09-s-58">
          <mxGeometry x="30" width="180" height="30" as="geometry">
            <mxRectangle width="180" height="30" as="alternateBounds" />
          </mxGeometry>
        </mxCell>
        <mxCell id="VEAYyaZn8zi7UT8q09-s-61" value="TEXT" style="shape=partialRectangle;connectable=0;fillColor=none;top=0;left=0;bottom=0;right=0;align=left;spacingLeft=6;overflow=hidden;whiteSpace=wrap;html=1;hachureGap=4;fontFamily=Helvetica;fontSize=20;rounded=1;" vertex="1" parent="VEAYyaZn8zi7UT8q09-s-58">
          <mxGeometry x="210" width="140" height="30" as="geometry">
            <mxRectangle width="140" height="30" as="alternateBounds" />
          </mxGeometry>
        </mxCell>
        <mxCell id="VEAYyaZn8zi7UT8q09-s-62" value="" style="shape=tableRow;horizontal=0;startSize=0;swimlaneHead=0;swimlaneBody=0;fillColor=none;collapsible=0;dropTarget=0;points=[[0,0.5],[1,0.5]];portConstraint=eastwest;top=0;left=0;right=0;bottom=0;hachureGap=4;fontFamily=Helvetica;fontSize=20;rounded=1;" vertex="1" parent="VEAYyaZn8zi7UT8q09-s-53">
          <mxGeometry y="90" width="350" height="30" as="geometry" />
        </mxCell>
        <mxCell id="VEAYyaZn8zi7UT8q09-s-63" value="FK" style="shape=partialRectangle;connectable=0;fillColor=none;top=0;left=0;bottom=0;right=0;editable=1;overflow=hidden;whiteSpace=wrap;html=1;hachureGap=4;fontFamily=Helvetica;fontSize=20;rounded=1;fontStyle=1" vertex="1" parent="VEAYyaZn8zi7UT8q09-s-62">
          <mxGeometry width="30" height="30" as="geometry">
            <mxRectangle width="30" height="30" as="alternateBounds" />
          </mxGeometry>
        </mxCell>
        <mxCell id="VEAYyaZn8zi7UT8q09-s-64" value="com_branch_id" style="shape=partialRectangle;connectable=0;fillColor=none;top=0;left=0;bottom=0;right=0;align=left;spacingLeft=6;overflow=hidden;whiteSpace=wrap;html=1;hachureGap=4;fontFamily=Helvetica;fontSize=20;rounded=1;" vertex="1" parent="VEAYyaZn8zi7UT8q09-s-62">
          <mxGeometry x="30" width="180" height="30" as="geometry">
            <mxRectangle width="180" height="30" as="alternateBounds" />
          </mxGeometry>
        </mxCell>
        <mxCell id="VEAYyaZn8zi7UT8q09-s-65" value="BIGINT" style="shape=partialRectangle;connectable=0;fillColor=none;top=0;left=0;bottom=0;right=0;align=left;spacingLeft=6;overflow=hidden;whiteSpace=wrap;html=1;hachureGap=4;fontFamily=Helvetica;fontSize=20;rounded=1;" vertex="1" parent="VEAYyaZn8zi7UT8q09-s-62">
          <mxGeometry x="210" width="140" height="30" as="geometry">
            <mxRectangle width="140" height="30" as="alternateBounds" />
          </mxGeometry>
        </mxCell>
        <mxCell id="VEAYyaZn8zi7UT8q09-s-105" value="" style="shape=tableRow;horizontal=0;startSize=0;swimlaneHead=0;swimlaneBody=0;fillColor=none;collapsible=0;dropTarget=0;points=[[0,0.5],[1,0.5]];portConstraint=eastwest;top=0;left=0;right=0;bottom=0;hachureGap=4;fontFamily=Helvetica;fontSize=20;rounded=1;" vertex="1" parent="VEAYyaZn8zi7UT8q09-s-53">
          <mxGeometry y="120" width="350" height="30" as="geometry" />
        </mxCell>
        <mxCell id="VEAYyaZn8zi7UT8q09-s-106" value="" style="shape=partialRectangle;connectable=0;fillColor=none;top=0;left=0;bottom=0;right=0;editable=1;overflow=hidden;whiteSpace=wrap;html=1;hachureGap=4;fontFamily=Helvetica;fontSize=20;rounded=1;fontStyle=1" vertex="1" parent="VEAYyaZn8zi7UT8q09-s-105">
          <mxGeometry width="30" height="30" as="geometry">
            <mxRectangle width="30" height="30" as="alternateBounds" />
          </mxGeometry>
        </mxCell>
        <mxCell id="VEAYyaZn8zi7UT8q09-s-107" value="created_at" style="shape=partialRectangle;connectable=0;fillColor=none;top=0;left=0;bottom=0;right=0;align=left;spacingLeft=6;overflow=hidden;whiteSpace=wrap;html=1;hachureGap=4;fontFamily=Helvetica;fontSize=20;rounded=1;" vertex="1" parent="VEAYyaZn8zi7UT8q09-s-105">
          <mxGeometry x="30" width="180" height="30" as="geometry">
            <mxRectangle width="180" height="30" as="alternateBounds" />
          </mxGeometry>
        </mxCell>
        <mxCell id="VEAYyaZn8zi7UT8q09-s-108" value="TIMESTAMP" style="shape=partialRectangle;connectable=0;fillColor=none;top=0;left=0;bottom=0;right=0;align=left;spacingLeft=6;overflow=hidden;whiteSpace=wrap;html=1;hachureGap=4;fontFamily=Helvetica;fontSize=20;rounded=1;" vertex="1" parent="VEAYyaZn8zi7UT8q09-s-105">
          <mxGeometry x="210" width="140" height="30" as="geometry">
            <mxRectangle width="140" height="30" as="alternateBounds" />
          </mxGeometry>
        </mxCell>
        <mxCell id="VEAYyaZn8zi7UT8q09-s-75" value="" style="edgeStyle=orthogonalEdgeStyle;fontSize=12;html=1;endArrow=ERoneToMany;startArrow=ERmandOne;rounded=1;spacing=9;spacingRight=10;endSize=16;targetPerimeterSpacing=16;startSize=16;" edge="1" parent="1" source="VEAYyaZn8zi7UT8q09-s-15" target="VEAYyaZn8zi7UT8q09-s-62">
          <mxGeometry width="100" height="100" relative="1" as="geometry">
            <mxPoint x="920" y="-82" as="sourcePoint" />
            <mxPoint x="925.4499999999998" y="279" as="targetPoint" />
            <Array as="points">
              <mxPoint x="900" y="-82" />
              <mxPoint x="900" y="279" />
            </Array>
          </mxGeometry>
        </mxCell>
        <mxCell id="VEAYyaZn8zi7UT8q09-s-76" value="em_personal" style="shape=table;startSize=30;container=1;collapsible=1;childLayout=tableLayout;fixedRows=1;rowLines=0;fontStyle=1;align=center;resizeLast=1;html=1;hachureGap=4;fontFamily=Helvetica;fontSize=20;fillColor=#eeeeee;strokeColor=#36393d;rounded=1;" vertex="1" parent="1">
          <mxGeometry x="1620" y="260" width="340" height="330" as="geometry" />
        </mxCell>
        <mxCell id="VEAYyaZn8zi7UT8q09-s-77" value="" style="shape=tableRow;horizontal=0;startSize=0;swimlaneHead=0;swimlaneBody=0;fillColor=none;collapsible=0;dropTarget=0;points=[[0,0.5],[1,0.5]];portConstraint=eastwest;top=0;left=0;right=0;bottom=1;hachureGap=4;fontFamily=Helvetica;fontSize=20;rounded=1;" vertex="1" parent="VEAYyaZn8zi7UT8q09-s-76">
          <mxGeometry y="30" width="340" height="30" as="geometry" />
        </mxCell>
        <mxCell id="VEAYyaZn8zi7UT8q09-s-78" value="PK" style="shape=partialRectangle;connectable=0;fillColor=none;top=0;left=0;bottom=0;right=0;fontStyle=1;overflow=hidden;whiteSpace=wrap;html=1;hachureGap=4;fontFamily=Helvetica;fontSize=20;rounded=1;" vertex="1" parent="VEAYyaZn8zi7UT8q09-s-77">
          <mxGeometry width="30" height="30" as="geometry">
            <mxRectangle width="30" height="30" as="alternateBounds" />
          </mxGeometry>
        </mxCell>
        <mxCell id="VEAYyaZn8zi7UT8q09-s-79" value="UniqueID" style="shape=partialRectangle;connectable=0;fillColor=none;top=0;left=0;bottom=0;right=0;align=left;spacingLeft=6;fontStyle=0;overflow=hidden;whiteSpace=wrap;html=1;hachureGap=4;fontFamily=Helvetica;fontSize=20;rounded=1;" vertex="1" parent="VEAYyaZn8zi7UT8q09-s-77">
          <mxGeometry x="30" width="190" height="30" as="geometry">
            <mxRectangle width="190" height="30" as="alternateBounds" />
          </mxGeometry>
        </mxCell>
        <mxCell id="VEAYyaZn8zi7UT8q09-s-80" value="BIGSERIAL" style="shape=partialRectangle;connectable=0;fillColor=none;top=0;left=0;bottom=0;right=0;align=left;spacingLeft=6;fontStyle=0;overflow=hidden;whiteSpace=wrap;html=1;hachureGap=4;fontFamily=Helvetica;fontSize=20;rounded=1;" vertex="1" parent="VEAYyaZn8zi7UT8q09-s-77">
          <mxGeometry x="220" width="120" height="30" as="geometry">
            <mxRectangle width="120" height="30" as="alternateBounds" />
          </mxGeometry>
        </mxCell>
        <mxCell id="VEAYyaZn8zi7UT8q09-s-81" value="" style="shape=tableRow;horizontal=0;startSize=0;swimlaneHead=0;swimlaneBody=0;fillColor=none;collapsible=0;dropTarget=0;points=[[0,0.5],[1,0.5]];portConstraint=eastwest;top=0;left=0;right=0;bottom=0;hachureGap=4;fontFamily=Helvetica;fontSize=20;rounded=1;" vertex="1" parent="VEAYyaZn8zi7UT8q09-s-76">
          <mxGeometry y="60" width="340" height="30" as="geometry" />
        </mxCell>
        <mxCell id="VEAYyaZn8zi7UT8q09-s-82" value="" style="shape=partialRectangle;connectable=0;fillColor=none;top=0;left=0;bottom=0;right=0;editable=1;overflow=hidden;whiteSpace=wrap;html=1;hachureGap=4;fontFamily=Helvetica;fontSize=20;rounded=1;" vertex="1" parent="VEAYyaZn8zi7UT8q09-s-81">
          <mxGeometry width="30" height="30" as="geometry">
            <mxRectangle width="30" height="30" as="alternateBounds" />
          </mxGeometry>
        </mxCell>
        <mxCell id="VEAYyaZn8zi7UT8q09-s-83" value="first_name" style="shape=partialRectangle;connectable=0;fillColor=none;top=0;left=0;bottom=0;right=0;align=left;spacingLeft=6;overflow=hidden;whiteSpace=wrap;html=1;hachureGap=4;fontFamily=Helvetica;fontSize=20;rounded=1;" vertex="1" parent="VEAYyaZn8zi7UT8q09-s-81">
          <mxGeometry x="30" width="190" height="30" as="geometry">
            <mxRectangle width="190" height="30" as="alternateBounds" />
          </mxGeometry>
        </mxCell>
        <mxCell id="VEAYyaZn8zi7UT8q09-s-84" value="TEXT" style="shape=partialRectangle;connectable=0;fillColor=none;top=0;left=0;bottom=0;right=0;align=left;spacingLeft=6;overflow=hidden;whiteSpace=wrap;html=1;hachureGap=4;fontFamily=Helvetica;fontSize=20;rounded=1;" vertex="1" parent="VEAYyaZn8zi7UT8q09-s-81">
          <mxGeometry x="220" width="120" height="30" as="geometry">
            <mxRectangle width="120" height="30" as="alternateBounds" />
          </mxGeometry>
        </mxCell>
        <mxCell id="VEAYyaZn8zi7UT8q09-s-85" value="" style="shape=tableRow;horizontal=0;startSize=0;swimlaneHead=0;swimlaneBody=0;fillColor=none;collapsible=0;dropTarget=0;points=[[0,0.5],[1,0.5]];portConstraint=eastwest;top=0;left=0;right=0;bottom=0;hachureGap=4;fontFamily=Helvetica;fontSize=20;rounded=1;" vertex="1" parent="VEAYyaZn8zi7UT8q09-s-76">
          <mxGeometry y="90" width="340" height="30" as="geometry" />
        </mxCell>
        <mxCell id="VEAYyaZn8zi7UT8q09-s-86" value="" style="shape=partialRectangle;connectable=0;fillColor=none;top=0;left=0;bottom=0;right=0;editable=1;overflow=hidden;whiteSpace=wrap;html=1;hachureGap=4;fontFamily=Helvetica;fontSize=20;rounded=1;" vertex="1" parent="VEAYyaZn8zi7UT8q09-s-85">
          <mxGeometry width="30" height="30" as="geometry">
            <mxRectangle width="30" height="30" as="alternateBounds" />
          </mxGeometry>
        </mxCell>
        <mxCell id="VEAYyaZn8zi7UT8q09-s-87" value="last_name" style="shape=partialRectangle;connectable=0;fillColor=none;top=0;left=0;bottom=0;right=0;align=left;spacingLeft=6;overflow=hidden;whiteSpace=wrap;html=1;hachureGap=4;fontFamily=Helvetica;fontSize=20;rounded=1;" vertex="1" parent="VEAYyaZn8zi7UT8q09-s-85">
          <mxGeometry x="30" width="190" height="30" as="geometry">
            <mxRectangle width="190" height="30" as="alternateBounds" />
          </mxGeometry>
        </mxCell>
        <mxCell id="VEAYyaZn8zi7UT8q09-s-88" value="TEXT" style="shape=partialRectangle;connectable=0;fillColor=none;top=0;left=0;bottom=0;right=0;align=left;spacingLeft=6;overflow=hidden;whiteSpace=wrap;html=1;hachureGap=4;fontFamily=Helvetica;fontSize=20;rounded=1;" vertex="1" parent="VEAYyaZn8zi7UT8q09-s-85">
          <mxGeometry x="220" width="120" height="30" as="geometry">
            <mxRectangle width="120" height="30" as="alternateBounds" />
          </mxGeometry>
        </mxCell>
        <mxCell id="VEAYyaZn8zi7UT8q09-s-89" value="" style="shape=tableRow;horizontal=0;startSize=0;swimlaneHead=0;swimlaneBody=0;fillColor=none;collapsible=0;dropTarget=0;points=[[0,0.5],[1,0.5]];portConstraint=eastwest;top=0;left=0;right=0;bottom=0;hachureGap=4;fontFamily=Helvetica;fontSize=20;rounded=1;" vertex="1" parent="VEAYyaZn8zi7UT8q09-s-76">
          <mxGeometry y="120" width="340" height="30" as="geometry" />
        </mxCell>
        <mxCell id="VEAYyaZn8zi7UT8q09-s-90" value="" style="shape=partialRectangle;connectable=0;fillColor=none;top=0;left=0;bottom=0;right=0;editable=1;overflow=hidden;whiteSpace=wrap;html=1;hachureGap=4;fontFamily=Helvetica;fontSize=20;rounded=1;" vertex="1" parent="VEAYyaZn8zi7UT8q09-s-89">
          <mxGeometry width="30" height="30" as="geometry">
            <mxRectangle width="30" height="30" as="alternateBounds" />
          </mxGeometry>
        </mxCell>
        <mxCell id="VEAYyaZn8zi7UT8q09-s-91" value="nationality" style="shape=partialRectangle;connectable=0;fillColor=none;top=0;left=0;bottom=0;right=0;align=left;spacingLeft=6;overflow=hidden;whiteSpace=wrap;html=1;hachureGap=4;fontFamily=Helvetica;fontSize=20;rounded=1;" vertex="1" parent="VEAYyaZn8zi7UT8q09-s-89">
          <mxGeometry x="30" width="190" height="30" as="geometry">
            <mxRectangle width="190" height="30" as="alternateBounds" />
          </mxGeometry>
        </mxCell>
        <mxCell id="VEAYyaZn8zi7UT8q09-s-92" value="TEXT" style="shape=partialRectangle;connectable=0;fillColor=none;top=0;left=0;bottom=0;right=0;align=left;spacingLeft=6;overflow=hidden;whiteSpace=wrap;html=1;hachureGap=4;fontFamily=Helvetica;fontSize=20;rounded=1;" vertex="1" parent="VEAYyaZn8zi7UT8q09-s-89">
          <mxGeometry x="220" width="120" height="30" as="geometry">
            <mxRectangle width="120" height="30" as="alternateBounds" />
          </mxGeometry>
        </mxCell>
        <mxCell id="VEAYyaZn8zi7UT8q09-s-93" value="" style="shape=tableRow;horizontal=0;startSize=0;swimlaneHead=0;swimlaneBody=0;fillColor=none;collapsible=0;dropTarget=0;points=[[0,0.5],[1,0.5]];portConstraint=eastwest;top=0;left=0;right=0;bottom=0;hachureGap=4;fontFamily=Helvetica;fontSize=20;rounded=1;" vertex="1" parent="VEAYyaZn8zi7UT8q09-s-76">
          <mxGeometry y="150" width="340" height="30" as="geometry" />
        </mxCell>
        <mxCell id="VEAYyaZn8zi7UT8q09-s-94" value="" style="shape=partialRectangle;connectable=0;fillColor=none;top=0;left=0;bottom=0;right=0;editable=1;overflow=hidden;whiteSpace=wrap;html=1;hachureGap=4;fontFamily=Helvetica;fontSize=20;rounded=1;" vertex="1" parent="VEAYyaZn8zi7UT8q09-s-93">
          <mxGeometry width="30" height="30" as="geometry">
            <mxRectangle width="30" height="30" as="alternateBounds" />
          </mxGeometry>
        </mxCell>
        <mxCell id="VEAYyaZn8zi7UT8q09-s-95" value="passport_no" style="shape=partialRectangle;connectable=0;fillColor=none;top=0;left=0;bottom=0;right=0;align=left;spacingLeft=6;overflow=hidden;whiteSpace=wrap;html=1;hachureGap=4;fontFamily=Helvetica;fontSize=20;rounded=1;" vertex="1" parent="VEAYyaZn8zi7UT8q09-s-93">
          <mxGeometry x="30" width="190" height="30" as="geometry">
            <mxRectangle width="190" height="30" as="alternateBounds" />
          </mxGeometry>
        </mxCell>
        <mxCell id="VEAYyaZn8zi7UT8q09-s-96" value="TEXT" style="shape=partialRectangle;connectable=0;fillColor=none;top=0;left=0;bottom=0;right=0;align=left;spacingLeft=6;overflow=hidden;whiteSpace=wrap;html=1;hachureGap=4;fontFamily=Helvetica;fontSize=20;rounded=1;" vertex="1" parent="VEAYyaZn8zi7UT8q09-s-93">
          <mxGeometry x="220" width="120" height="30" as="geometry">
            <mxRectangle width="120" height="30" as="alternateBounds" />
          </mxGeometry>
        </mxCell>
        <mxCell id="VEAYyaZn8zi7UT8q09-s-97" value="" style="shape=tableRow;horizontal=0;startSize=0;swimlaneHead=0;swimlaneBody=0;fillColor=none;collapsible=0;dropTarget=0;points=[[0,0.5],[1,0.5]];portConstraint=eastwest;top=0;left=0;right=0;bottom=0;hachureGap=4;fontFamily=Helvetica;fontSize=20;rounded=1;" vertex="1" parent="VEAYyaZn8zi7UT8q09-s-76">
          <mxGeometry y="180" width="340" height="30" as="geometry" />
        </mxCell>
        <mxCell id="VEAYyaZn8zi7UT8q09-s-98" value="" style="shape=partialRectangle;connectable=0;fillColor=none;top=0;left=0;bottom=0;right=0;editable=1;overflow=hidden;whiteSpace=wrap;html=1;hachureGap=4;fontFamily=Helvetica;fontSize=20;rounded=1;" vertex="1" parent="VEAYyaZn8zi7UT8q09-s-97">
          <mxGeometry width="30" height="30" as="geometry">
            <mxRectangle width="30" height="30" as="alternateBounds" />
          </mxGeometry>
        </mxCell>
        <mxCell id="VEAYyaZn8zi7UT8q09-s-99" value="email" style="shape=partialRectangle;connectable=0;fillColor=none;top=0;left=0;bottom=0;right=0;align=left;spacingLeft=6;overflow=hidden;whiteSpace=wrap;html=1;hachureGap=4;fontFamily=Helvetica;fontSize=20;rounded=1;" vertex="1" parent="VEAYyaZn8zi7UT8q09-s-97">
          <mxGeometry x="30" width="190" height="30" as="geometry">
            <mxRectangle width="190" height="30" as="alternateBounds" />
          </mxGeometry>
        </mxCell>
        <mxCell id="VEAYyaZn8zi7UT8q09-s-100" value="TEXT" style="shape=partialRectangle;connectable=0;fillColor=none;top=0;left=0;bottom=0;right=0;align=left;spacingLeft=6;overflow=hidden;whiteSpace=wrap;html=1;hachureGap=4;fontFamily=Helvetica;fontSize=20;rounded=1;" vertex="1" parent="VEAYyaZn8zi7UT8q09-s-97">
          <mxGeometry x="220" width="120" height="30" as="geometry">
            <mxRectangle width="120" height="30" as="alternateBounds" />
          </mxGeometry>
        </mxCell>
        <mxCell id="VEAYyaZn8zi7UT8q09-s-162" value="" style="shape=tableRow;horizontal=0;startSize=0;swimlaneHead=0;swimlaneBody=0;fillColor=none;collapsible=0;dropTarget=0;points=[[0,0.5],[1,0.5]];portConstraint=eastwest;top=0;left=0;right=0;bottom=0;hachureGap=4;fontFamily=Helvetica;fontSize=20;rounded=1;" vertex="1" parent="VEAYyaZn8zi7UT8q09-s-76">
          <mxGeometry y="210" width="340" height="30" as="geometry" />
        </mxCell>
        <mxCell id="VEAYyaZn8zi7UT8q09-s-163" value="" style="shape=partialRectangle;connectable=0;fillColor=none;top=0;left=0;bottom=0;right=0;editable=1;overflow=hidden;whiteSpace=wrap;html=1;hachureGap=4;fontFamily=Helvetica;fontSize=20;rounded=1;" vertex="1" parent="VEAYyaZn8zi7UT8q09-s-162">
          <mxGeometry width="30" height="30" as="geometry">
            <mxRectangle width="30" height="30" as="alternateBounds" />
          </mxGeometry>
        </mxCell>
        <mxCell id="VEAYyaZn8zi7UT8q09-s-164" value="gender" style="shape=partialRectangle;connectable=0;fillColor=none;top=0;left=0;bottom=0;right=0;align=left;spacingLeft=6;overflow=hidden;whiteSpace=wrap;html=1;hachureGap=4;fontFamily=Helvetica;fontSize=20;rounded=1;" vertex="1" parent="VEAYyaZn8zi7UT8q09-s-162">
          <mxGeometry x="30" width="190" height="30" as="geometry">
            <mxRectangle width="190" height="30" as="alternateBounds" />
          </mxGeometry>
        </mxCell>
        <mxCell id="VEAYyaZn8zi7UT8q09-s-165" value="TEXT" style="shape=partialRectangle;connectable=0;fillColor=none;top=0;left=0;bottom=0;right=0;align=left;spacingLeft=6;overflow=hidden;whiteSpace=wrap;html=1;hachureGap=4;fontFamily=Helvetica;fontSize=20;rounded=1;" vertex="1" parent="VEAYyaZn8zi7UT8q09-s-162">
          <mxGeometry x="220" width="120" height="30" as="geometry">
            <mxRectangle width="120" height="30" as="alternateBounds" />
          </mxGeometry>
        </mxCell>
        <mxCell id="VEAYyaZn8zi7UT8q09-s-156" value="" style="shape=tableRow;horizontal=0;startSize=0;swimlaneHead=0;swimlaneBody=0;fillColor=none;collapsible=0;dropTarget=0;points=[[0,0.5],[1,0.5]];portConstraint=eastwest;top=0;left=0;right=0;bottom=0;hachureGap=4;fontFamily=Helvetica;fontSize=20;rounded=1;" vertex="1" parent="VEAYyaZn8zi7UT8q09-s-76">
          <mxGeometry y="240" width="340" height="30" as="geometry" />
        </mxCell>
        <mxCell id="VEAYyaZn8zi7UT8q09-s-157" value="FK" style="shape=partialRectangle;connectable=0;fillColor=none;top=0;left=0;bottom=0;right=0;editable=1;overflow=hidden;whiteSpace=wrap;html=1;hachureGap=4;fontFamily=Helvetica;fontSize=20;rounded=1;" vertex="1" parent="VEAYyaZn8zi7UT8q09-s-156">
          <mxGeometry width="30" height="30" as="geometry">
            <mxRectangle width="30" height="30" as="alternateBounds" />
          </mxGeometry>
        </mxCell>
        <mxCell id="VEAYyaZn8zi7UT8q09-s-158" value="com_branch_id" style="shape=partialRectangle;connectable=0;fillColor=none;top=0;left=0;bottom=0;right=0;align=left;spacingLeft=6;overflow=hidden;whiteSpace=wrap;html=1;hachureGap=4;fontFamily=Helvetica;fontSize=20;rounded=1;" vertex="1" parent="VEAYyaZn8zi7UT8q09-s-156">
          <mxGeometry x="30" width="190" height="30" as="geometry">
            <mxRectangle width="190" height="30" as="alternateBounds" />
          </mxGeometry>
        </mxCell>
        <mxCell id="VEAYyaZn8zi7UT8q09-s-159" value="BIGINT" style="shape=partialRectangle;connectable=0;fillColor=none;top=0;left=0;bottom=0;right=0;align=left;spacingLeft=6;overflow=hidden;whiteSpace=wrap;html=1;hachureGap=4;fontFamily=Helvetica;fontSize=20;rounded=1;" vertex="1" parent="VEAYyaZn8zi7UT8q09-s-156">
          <mxGeometry x="220" width="120" height="30" as="geometry">
            <mxRectangle width="120" height="30" as="alternateBounds" />
          </mxGeometry>
        </mxCell>
        <mxCell id="VEAYyaZn8zi7UT8q09-s-213" value="" style="shape=tableRow;horizontal=0;startSize=0;swimlaneHead=0;swimlaneBody=0;fillColor=none;collapsible=0;dropTarget=0;points=[[0,0.5],[1,0.5]];portConstraint=eastwest;top=0;left=0;right=0;bottom=0;hachureGap=4;fontFamily=Helvetica;fontSize=20;rounded=1;" vertex="1" parent="VEAYyaZn8zi7UT8q09-s-76">
          <mxGeometry y="270" width="340" height="30" as="geometry" />
        </mxCell>
        <mxCell id="VEAYyaZn8zi7UT8q09-s-214" value="FK" style="shape=partialRectangle;connectable=0;fillColor=none;top=0;left=0;bottom=0;right=0;editable=1;overflow=hidden;whiteSpace=wrap;html=1;hachureGap=4;fontFamily=Helvetica;fontSize=20;rounded=1;" vertex="1" parent="VEAYyaZn8zi7UT8q09-s-213">
          <mxGeometry width="30" height="30" as="geometry">
            <mxRectangle width="30" height="30" as="alternateBounds" />
          </mxGeometry>
        </mxCell>
        <mxCell id="VEAYyaZn8zi7UT8q09-s-215" value="com_department_id" style="shape=partialRectangle;connectable=0;fillColor=none;top=0;left=0;bottom=0;right=0;align=left;spacingLeft=6;overflow=hidden;whiteSpace=wrap;html=1;hachureGap=4;fontFamily=Helvetica;fontSize=20;rounded=1;" vertex="1" parent="VEAYyaZn8zi7UT8q09-s-213">
          <mxGeometry x="30" width="190" height="30" as="geometry">
            <mxRectangle width="190" height="30" as="alternateBounds" />
          </mxGeometry>
        </mxCell>
        <mxCell id="VEAYyaZn8zi7UT8q09-s-216" value="BIGINT" style="shape=partialRectangle;connectable=0;fillColor=none;top=0;left=0;bottom=0;right=0;align=left;spacingLeft=6;overflow=hidden;whiteSpace=wrap;html=1;hachureGap=4;fontFamily=Helvetica;fontSize=20;rounded=1;" vertex="1" parent="VEAYyaZn8zi7UT8q09-s-213">
          <mxGeometry x="220" width="120" height="30" as="geometry">
            <mxRectangle width="120" height="30" as="alternateBounds" />
          </mxGeometry>
        </mxCell>
        <mxCell id="VEAYyaZn8zi7UT8q09-s-110" value="" style="shape=tableRow;horizontal=0;startSize=0;swimlaneHead=0;swimlaneBody=0;fillColor=none;collapsible=0;dropTarget=0;points=[[0,0.5],[1,0.5]];portConstraint=eastwest;top=0;left=0;right=0;bottom=0;hachureGap=4;fontFamily=Helvetica;fontSize=20;rounded=1;" vertex="1" parent="VEAYyaZn8zi7UT8q09-s-76">
          <mxGeometry y="300" width="340" height="30" as="geometry" />
        </mxCell>
        <mxCell id="VEAYyaZn8zi7UT8q09-s-111" value="" style="shape=partialRectangle;connectable=0;fillColor=none;top=0;left=0;bottom=0;right=0;editable=1;overflow=hidden;whiteSpace=wrap;html=1;hachureGap=4;fontFamily=Helvetica;fontSize=20;rounded=1;" vertex="1" parent="VEAYyaZn8zi7UT8q09-s-110">
          <mxGeometry width="30" height="30" as="geometry">
            <mxRectangle width="30" height="30" as="alternateBounds" />
          </mxGeometry>
        </mxCell>
        <mxCell id="VEAYyaZn8zi7UT8q09-s-112" value="created_at" style="shape=partialRectangle;connectable=0;fillColor=none;top=0;left=0;bottom=0;right=0;align=left;spacingLeft=6;overflow=hidden;whiteSpace=wrap;html=1;hachureGap=4;fontFamily=Helvetica;fontSize=20;rounded=1;" vertex="1" parent="VEAYyaZn8zi7UT8q09-s-110">
          <mxGeometry x="30" width="190" height="30" as="geometry">
            <mxRectangle width="190" height="30" as="alternateBounds" />
          </mxGeometry>
        </mxCell>
        <mxCell id="VEAYyaZn8zi7UT8q09-s-113" value="TIMESTAMP" style="shape=partialRectangle;connectable=0;fillColor=none;top=0;left=0;bottom=0;right=0;align=left;spacingLeft=6;overflow=hidden;whiteSpace=wrap;html=1;hachureGap=4;fontFamily=Helvetica;fontSize=20;rounded=1;" vertex="1" parent="VEAYyaZn8zi7UT8q09-s-110">
          <mxGeometry x="220" width="120" height="30" as="geometry">
            <mxRectangle width="120" height="30" as="alternateBounds" />
          </mxGeometry>
        </mxCell>
        <mxCell id="VEAYyaZn8zi7UT8q09-s-114" value="mobile" style="shape=table;startSize=30;container=1;collapsible=1;childLayout=tableLayout;fixedRows=1;rowLines=0;fontStyle=1;align=center;resizeLast=1;html=1;hachureGap=4;fontFamily=Helvetica;fontSize=20;fillColor=#eeeeee;strokeColor=#36393d;rounded=1;" vertex="1" parent="1">
          <mxGeometry x="990" y="700" width="330" height="240.00000000000023" as="geometry" />
        </mxCell>
        <mxCell id="VEAYyaZn8zi7UT8q09-s-115" value="" style="shape=tableRow;horizontal=0;startSize=0;swimlaneHead=0;swimlaneBody=0;fillColor=none;collapsible=0;dropTarget=0;points=[[0,0.5],[1,0.5]];portConstraint=eastwest;top=0;left=0;right=0;bottom=1;hachureGap=4;fontFamily=Helvetica;fontSize=20;rounded=1;" vertex="1" parent="VEAYyaZn8zi7UT8q09-s-114">
          <mxGeometry y="30" width="330" height="30" as="geometry" />
        </mxCell>
        <mxCell id="VEAYyaZn8zi7UT8q09-s-116" value="PK" style="shape=partialRectangle;connectable=0;fillColor=none;top=0;left=0;bottom=0;right=0;fontStyle=1;overflow=hidden;whiteSpace=wrap;html=1;hachureGap=4;fontFamily=Helvetica;fontSize=20;rounded=1;" vertex="1" parent="VEAYyaZn8zi7UT8q09-s-115">
          <mxGeometry width="30" height="30" as="geometry">
            <mxRectangle width="30" height="30" as="alternateBounds" />
          </mxGeometry>
        </mxCell>
        <mxCell id="VEAYyaZn8zi7UT8q09-s-117" value="UniqueID" style="shape=partialRectangle;connectable=0;fillColor=none;top=0;left=0;bottom=0;right=0;align=left;spacingLeft=6;fontStyle=0;overflow=hidden;whiteSpace=wrap;html=1;hachureGap=4;fontFamily=Helvetica;fontSize=20;rounded=1;" vertex="1" parent="VEAYyaZn8zi7UT8q09-s-115">
          <mxGeometry x="30" width="160" height="30" as="geometry">
            <mxRectangle width="160" height="30" as="alternateBounds" />
          </mxGeometry>
        </mxCell>
        <mxCell id="VEAYyaZn8zi7UT8q09-s-118" value="BIGSERIAL" style="shape=partialRectangle;connectable=0;fillColor=none;top=0;left=0;bottom=0;right=0;align=left;spacingLeft=6;fontStyle=0;overflow=hidden;whiteSpace=wrap;html=1;hachureGap=4;fontFamily=Helvetica;fontSize=20;rounded=1;" vertex="1" parent="VEAYyaZn8zi7UT8q09-s-115">
          <mxGeometry x="190" width="140" height="30" as="geometry">
            <mxRectangle width="140" height="30" as="alternateBounds" />
          </mxGeometry>
        </mxCell>
        <mxCell id="VEAYyaZn8zi7UT8q09-s-119" value="" style="shape=tableRow;horizontal=0;startSize=0;swimlaneHead=0;swimlaneBody=0;fillColor=none;collapsible=0;dropTarget=0;points=[[0,0.5],[1,0.5]];portConstraint=eastwest;top=0;left=0;right=0;bottom=0;hachureGap=4;fontFamily=Helvetica;fontSize=20;rounded=1;" vertex="1" parent="VEAYyaZn8zi7UT8q09-s-114">
          <mxGeometry y="60" width="330" height="30" as="geometry" />
        </mxCell>
        <mxCell id="VEAYyaZn8zi7UT8q09-s-120" value="" style="shape=partialRectangle;connectable=0;fillColor=none;top=0;left=0;bottom=0;right=0;editable=1;overflow=hidden;whiteSpace=wrap;html=1;hachureGap=4;fontFamily=Helvetica;fontSize=20;rounded=1;" vertex="1" parent="VEAYyaZn8zi7UT8q09-s-119">
          <mxGeometry width="30" height="30" as="geometry">
            <mxRectangle width="30" height="30" as="alternateBounds" />
          </mxGeometry>
        </mxCell>
        <mxCell id="VEAYyaZn8zi7UT8q09-s-121" value="title" style="shape=partialRectangle;connectable=0;fillColor=none;top=0;left=0;bottom=0;right=0;align=left;spacingLeft=6;overflow=hidden;whiteSpace=wrap;html=1;hachureGap=4;fontFamily=Helvetica;fontSize=20;rounded=1;" vertex="1" parent="VEAYyaZn8zi7UT8q09-s-119">
          <mxGeometry x="30" width="160" height="30" as="geometry">
            <mxRectangle width="160" height="30" as="alternateBounds" />
          </mxGeometry>
        </mxCell>
        <mxCell id="VEAYyaZn8zi7UT8q09-s-122" value="TEXT" style="shape=partialRectangle;connectable=0;fillColor=none;top=0;left=0;bottom=0;right=0;align=left;spacingLeft=6;overflow=hidden;whiteSpace=wrap;html=1;hachureGap=4;fontFamily=Helvetica;fontSize=20;rounded=1;" vertex="1" parent="VEAYyaZn8zi7UT8q09-s-119">
          <mxGeometry x="190" width="140" height="30" as="geometry">
            <mxRectangle width="140" height="30" as="alternateBounds" />
          </mxGeometry>
        </mxCell>
        <mxCell id="VEAYyaZn8zi7UT8q09-s-143" value="" style="shape=tableRow;horizontal=0;startSize=0;swimlaneHead=0;swimlaneBody=0;fillColor=none;collapsible=0;dropTarget=0;points=[[0,0.5],[1,0.5]];portConstraint=eastwest;top=0;left=0;right=0;bottom=0;hachureGap=4;fontFamily=Helvetica;fontSize=20;rounded=1;" vertex="1" parent="VEAYyaZn8zi7UT8q09-s-114">
          <mxGeometry y="90" width="330" height="30" as="geometry" />
        </mxCell>
        <mxCell id="VEAYyaZn8zi7UT8q09-s-144" value="" style="shape=partialRectangle;connectable=0;fillColor=none;top=0;left=0;bottom=0;right=0;editable=1;overflow=hidden;whiteSpace=wrap;html=1;hachureGap=4;fontFamily=Helvetica;fontSize=20;rounded=1;" vertex="1" parent="VEAYyaZn8zi7UT8q09-s-143">
          <mxGeometry width="30" height="30" as="geometry">
            <mxRectangle width="30" height="30" as="alternateBounds" />
          </mxGeometry>
        </mxCell>
        <mxCell id="VEAYyaZn8zi7UT8q09-s-145" value="country_code" style="shape=partialRectangle;connectable=0;fillColor=none;top=0;left=0;bottom=0;right=0;align=left;spacingLeft=6;overflow=hidden;whiteSpace=wrap;html=1;hachureGap=4;fontFamily=Helvetica;fontSize=20;rounded=1;" vertex="1" parent="VEAYyaZn8zi7UT8q09-s-143">
          <mxGeometry x="30" width="160" height="30" as="geometry">
            <mxRectangle width="160" height="30" as="alternateBounds" />
          </mxGeometry>
        </mxCell>
        <mxCell id="VEAYyaZn8zi7UT8q09-s-146" value="INT" style="shape=partialRectangle;connectable=0;fillColor=none;top=0;left=0;bottom=0;right=0;align=left;spacingLeft=6;overflow=hidden;whiteSpace=wrap;html=1;hachureGap=4;fontFamily=Helvetica;fontSize=20;rounded=1;" vertex="1" parent="VEAYyaZn8zi7UT8q09-s-143">
          <mxGeometry x="190" width="140" height="30" as="geometry">
            <mxRectangle width="140" height="30" as="alternateBounds" />
          </mxGeometry>
        </mxCell>
        <mxCell id="VEAYyaZn8zi7UT8q09-s-123" value="" style="shape=tableRow;horizontal=0;startSize=0;swimlaneHead=0;swimlaneBody=0;fillColor=none;collapsible=0;dropTarget=0;points=[[0,0.5],[1,0.5]];portConstraint=eastwest;top=0;left=0;right=0;bottom=0;hachureGap=4;fontFamily=Helvetica;fontSize=20;rounded=1;" vertex="1" parent="VEAYyaZn8zi7UT8q09-s-114">
          <mxGeometry y="120" width="330" height="30" as="geometry" />
        </mxCell>
        <mxCell id="VEAYyaZn8zi7UT8q09-s-124" value="" style="shape=partialRectangle;connectable=0;fillColor=none;top=0;left=0;bottom=0;right=0;editable=1;overflow=hidden;whiteSpace=wrap;html=1;hachureGap=4;fontFamily=Helvetica;fontSize=20;rounded=1;" vertex="1" parent="VEAYyaZn8zi7UT8q09-s-123">
          <mxGeometry width="30" height="30" as="geometry">
            <mxRectangle width="30" height="30" as="alternateBounds" />
          </mxGeometry>
        </mxCell>
        <mxCell id="VEAYyaZn8zi7UT8q09-s-125" value="number" style="shape=partialRectangle;connectable=0;fillColor=none;top=0;left=0;bottom=0;right=0;align=left;spacingLeft=6;overflow=hidden;whiteSpace=wrap;html=1;hachureGap=4;fontFamily=Helvetica;fontSize=20;rounded=1;" vertex="1" parent="VEAYyaZn8zi7UT8q09-s-123">
          <mxGeometry x="30" width="160" height="30" as="geometry">
            <mxRectangle width="160" height="30" as="alternateBounds" />
          </mxGeometry>
        </mxCell>
        <mxCell id="VEAYyaZn8zi7UT8q09-s-126" value="BIGINT" style="shape=partialRectangle;connectable=0;fillColor=none;top=0;left=0;bottom=0;right=0;align=left;spacingLeft=6;overflow=hidden;whiteSpace=wrap;html=1;hachureGap=4;fontFamily=Helvetica;fontSize=20;rounded=1;" vertex="1" parent="VEAYyaZn8zi7UT8q09-s-123">
          <mxGeometry x="190" width="140" height="30" as="geometry">
            <mxRectangle width="140" height="30" as="alternateBounds" />
          </mxGeometry>
        </mxCell>
        <mxCell id="VEAYyaZn8zi7UT8q09-s-147" value="" style="shape=tableRow;horizontal=0;startSize=0;swimlaneHead=0;swimlaneBody=0;fillColor=none;collapsible=0;dropTarget=0;points=[[0,0.5],[1,0.5]];portConstraint=eastwest;top=0;left=0;right=0;bottom=0;hachureGap=4;fontFamily=Helvetica;fontSize=20;rounded=1;" vertex="1" parent="VEAYyaZn8zi7UT8q09-s-114">
          <mxGeometry y="150" width="330" height="30" as="geometry" />
        </mxCell>
        <mxCell id="VEAYyaZn8zi7UT8q09-s-148" value="FK" style="shape=partialRectangle;connectable=0;fillColor=none;top=0;left=0;bottom=0;right=0;editable=1;overflow=hidden;whiteSpace=wrap;html=1;hachureGap=4;fontFamily=Helvetica;fontSize=20;rounded=1;" vertex="1" parent="VEAYyaZn8zi7UT8q09-s-147">
          <mxGeometry width="30" height="30" as="geometry">
            <mxRectangle width="30" height="30" as="alternateBounds" />
          </mxGeometry>
        </mxCell>
        <mxCell id="VEAYyaZn8zi7UT8q09-s-149" value="em_personal_id" style="shape=partialRectangle;connectable=0;fillColor=none;top=0;left=0;bottom=0;right=0;align=left;spacingLeft=6;overflow=hidden;whiteSpace=wrap;html=1;hachureGap=4;fontFamily=Helvetica;fontSize=20;rounded=1;" vertex="1" parent="VEAYyaZn8zi7UT8q09-s-147">
          <mxGeometry x="30" width="160" height="30" as="geometry">
            <mxRectangle width="160" height="30" as="alternateBounds" />
          </mxGeometry>
        </mxCell>
        <mxCell id="VEAYyaZn8zi7UT8q09-s-150" value="BIGINT" style="shape=partialRectangle;connectable=0;fillColor=none;top=0;left=0;bottom=0;right=0;align=left;spacingLeft=6;overflow=hidden;whiteSpace=wrap;html=1;hachureGap=4;fontFamily=Helvetica;fontSize=20;rounded=1;" vertex="1" parent="VEAYyaZn8zi7UT8q09-s-147">
          <mxGeometry x="190" width="140" height="30" as="geometry">
            <mxRectangle width="140" height="30" as="alternateBounds" />
          </mxGeometry>
        </mxCell>
        <mxCell id="VEAYyaZn8zi7UT8q09-s-192" value="" style="shape=tableRow;horizontal=0;startSize=0;swimlaneHead=0;swimlaneBody=0;fillColor=none;collapsible=0;dropTarget=0;points=[[0,0.5],[1,0.5]];portConstraint=eastwest;top=0;left=0;right=0;bottom=0;hachureGap=4;fontFamily=Helvetica;fontSize=20;rounded=1;" vertex="1" parent="VEAYyaZn8zi7UT8q09-s-114">
          <mxGeometry y="180" width="330" height="30" as="geometry" />
        </mxCell>
        <mxCell id="VEAYyaZn8zi7UT8q09-s-193" value="FK" style="shape=partialRectangle;connectable=0;fillColor=none;top=0;left=0;bottom=0;right=0;editable=1;overflow=hidden;whiteSpace=wrap;html=1;hachureGap=4;fontFamily=Helvetica;fontSize=20;rounded=1;" vertex="1" parent="VEAYyaZn8zi7UT8q09-s-192">
          <mxGeometry width="30" height="30" as="geometry">
            <mxRectangle width="30" height="30" as="alternateBounds" />
          </mxGeometry>
        </mxCell>
        <mxCell id="VEAYyaZn8zi7UT8q09-s-194" value="com_branch_id" style="shape=partialRectangle;connectable=0;fillColor=none;top=0;left=0;bottom=0;right=0;align=left;spacingLeft=6;overflow=hidden;whiteSpace=wrap;html=1;hachureGap=4;fontFamily=Helvetica;fontSize=20;rounded=1;" vertex="1" parent="VEAYyaZn8zi7UT8q09-s-192">
          <mxGeometry x="30" width="160" height="30" as="geometry">
            <mxRectangle width="160" height="30" as="alternateBounds" />
          </mxGeometry>
        </mxCell>
        <mxCell id="VEAYyaZn8zi7UT8q09-s-195" value="BIGINT" style="shape=partialRectangle;connectable=0;fillColor=none;top=0;left=0;bottom=0;right=0;align=left;spacingLeft=6;overflow=hidden;whiteSpace=wrap;html=1;hachureGap=4;fontFamily=Helvetica;fontSize=20;rounded=1;" vertex="1" parent="VEAYyaZn8zi7UT8q09-s-192">
          <mxGeometry x="190" width="140" height="30" as="geometry">
            <mxRectangle width="140" height="30" as="alternateBounds" />
          </mxGeometry>
        </mxCell>
        <mxCell id="VEAYyaZn8zi7UT8q09-s-139" value="" style="shape=tableRow;horizontal=0;startSize=0;swimlaneHead=0;swimlaneBody=0;fillColor=none;collapsible=0;dropTarget=0;points=[[0,0.5],[1,0.5]];portConstraint=eastwest;top=0;left=0;right=0;bottom=0;hachureGap=4;fontFamily=Helvetica;fontSize=20;rounded=1;" vertex="1" parent="VEAYyaZn8zi7UT8q09-s-114">
          <mxGeometry y="210" width="330" height="30" as="geometry" />
        </mxCell>
        <mxCell id="VEAYyaZn8zi7UT8q09-s-140" value="" style="shape=partialRectangle;connectable=0;fillColor=none;top=0;left=0;bottom=0;right=0;editable=1;overflow=hidden;whiteSpace=wrap;html=1;hachureGap=4;fontFamily=Helvetica;fontSize=20;rounded=1;" vertex="1" parent="VEAYyaZn8zi7UT8q09-s-139">
          <mxGeometry width="30" height="30" as="geometry">
            <mxRectangle width="30" height="30" as="alternateBounds" />
          </mxGeometry>
        </mxCell>
        <mxCell id="VEAYyaZn8zi7UT8q09-s-141" value="created_at" style="shape=partialRectangle;connectable=0;fillColor=none;top=0;left=0;bottom=0;right=0;align=left;spacingLeft=6;overflow=hidden;whiteSpace=wrap;html=1;hachureGap=4;fontFamily=Helvetica;fontSize=20;rounded=1;" vertex="1" parent="VEAYyaZn8zi7UT8q09-s-139">
          <mxGeometry x="30" width="160" height="30" as="geometry">
            <mxRectangle width="160" height="30" as="alternateBounds" />
          </mxGeometry>
        </mxCell>
        <mxCell id="VEAYyaZn8zi7UT8q09-s-142" value="TIMESTAMP" style="shape=partialRectangle;connectable=0;fillColor=none;top=0;left=0;bottom=0;right=0;align=left;spacingLeft=6;overflow=hidden;whiteSpace=wrap;html=1;hachureGap=4;fontFamily=Helvetica;fontSize=20;rounded=1;" vertex="1" parent="VEAYyaZn8zi7UT8q09-s-139">
          <mxGeometry x="190" width="140" height="30" as="geometry">
            <mxRectangle width="140" height="30" as="alternateBounds" />
          </mxGeometry>
        </mxCell>
        <mxCell id="VEAYyaZn8zi7UT8q09-s-151" value="" style="edgeStyle=orthogonalEdgeStyle;fontSize=12;html=1;endArrow=ERzeroToMany;startArrow=baseDash;rounded=1;spacing=9;spacingRight=10;endSize=16;targetPerimeterSpacing=16;startSize=16;endFill=0;startFill=0;" edge="1" parent="1" source="VEAYyaZn8zi7UT8q09-s-77" target="VEAYyaZn8zi7UT8q09-s-147">
          <mxGeometry width="100" height="100" relative="1" as="geometry">
            <mxPoint x="650.0000000000001" y="554" as="sourcePoint" />
            <mxPoint x="838.14" y="661" as="targetPoint" />
            <Array as="points">
              <mxPoint x="1540" y="305" />
              <mxPoint x="1540" y="865" />
            </Array>
          </mxGeometry>
        </mxCell>
        <mxCell id="VEAYyaZn8zi7UT8q09-s-160" value="" style="edgeStyle=orthogonalEdgeStyle;fontSize=12;html=1;endArrow=ERoneToMany;startArrow=ERmandOne;rounded=1;spacing=9;spacingRight=10;endSize=16;targetPerimeterSpacing=16;startSize=16;" edge="1" parent="1" source="VEAYyaZn8zi7UT8q09-s-14" target="VEAYyaZn8zi7UT8q09-s-156">
          <mxGeometry width="100" height="100" relative="1" as="geometry">
            <mxPoint x="1450" y="-80" as="sourcePoint" />
            <mxPoint x="770" y="780" as="targetPoint" />
            <Array as="points">
              <mxPoint x="1400" y="-80" />
              <mxPoint x="1400" y="515" />
            </Array>
          </mxGeometry>
        </mxCell>
        <mxCell id="VEAYyaZn8zi7UT8q09-s-166" value="address" style="shape=table;startSize=30;container=1;collapsible=1;childLayout=tableLayout;fixedRows=1;rowLines=0;fontStyle=1;align=center;resizeLast=1;html=1;hachureGap=4;fontFamily=Helvetica;fontSize=20;fillColor=#eeeeee;strokeColor=#36393d;rounded=1;" vertex="1" parent="1">
          <mxGeometry x="990" y="390" width="330" height="270" as="geometry" />
        </mxCell>
        <mxCell id="VEAYyaZn8zi7UT8q09-s-167" value="" style="shape=tableRow;horizontal=0;startSize=0;swimlaneHead=0;swimlaneBody=0;fillColor=none;collapsible=0;dropTarget=0;points=[[0,0.5],[1,0.5]];portConstraint=eastwest;top=0;left=0;right=0;bottom=1;hachureGap=4;fontFamily=Helvetica;fontSize=20;rounded=1;" vertex="1" parent="VEAYyaZn8zi7UT8q09-s-166">
          <mxGeometry y="30" width="330" height="30" as="geometry" />
        </mxCell>
        <mxCell id="VEAYyaZn8zi7UT8q09-s-168" value="PK" style="shape=partialRectangle;connectable=0;fillColor=none;top=0;left=0;bottom=0;right=0;fontStyle=1;overflow=hidden;whiteSpace=wrap;html=1;hachureGap=4;fontFamily=Helvetica;fontSize=20;rounded=1;" vertex="1" parent="VEAYyaZn8zi7UT8q09-s-167">
          <mxGeometry width="30" height="30" as="geometry">
            <mxRectangle width="30" height="30" as="alternateBounds" />
          </mxGeometry>
        </mxCell>
        <mxCell id="VEAYyaZn8zi7UT8q09-s-169" value="UniqueID" style="shape=partialRectangle;connectable=0;fillColor=none;top=0;left=0;bottom=0;right=0;align=left;spacingLeft=6;fontStyle=0;overflow=hidden;whiteSpace=wrap;html=1;hachureGap=4;fontFamily=Helvetica;fontSize=20;rounded=1;" vertex="1" parent="VEAYyaZn8zi7UT8q09-s-167">
          <mxGeometry x="30" width="160" height="30" as="geometry">
            <mxRectangle width="160" height="30" as="alternateBounds" />
          </mxGeometry>
        </mxCell>
        <mxCell id="VEAYyaZn8zi7UT8q09-s-170" value="BIGSERIAL" style="shape=partialRectangle;connectable=0;fillColor=none;top=0;left=0;bottom=0;right=0;align=left;spacingLeft=6;fontStyle=0;overflow=hidden;whiteSpace=wrap;html=1;hachureGap=4;fontFamily=Helvetica;fontSize=20;rounded=1;" vertex="1" parent="VEAYyaZn8zi7UT8q09-s-167">
          <mxGeometry x="190" width="140" height="30" as="geometry">
            <mxRectangle width="140" height="30" as="alternateBounds" />
          </mxGeometry>
        </mxCell>
        <mxCell id="VEAYyaZn8zi7UT8q09-s-171" value="" style="shape=tableRow;horizontal=0;startSize=0;swimlaneHead=0;swimlaneBody=0;fillColor=none;collapsible=0;dropTarget=0;points=[[0,0.5],[1,0.5]];portConstraint=eastwest;top=0;left=0;right=0;bottom=0;hachureGap=4;fontFamily=Helvetica;fontSize=20;rounded=1;" vertex="1" parent="VEAYyaZn8zi7UT8q09-s-166">
          <mxGeometry y="60" width="330" height="30" as="geometry" />
        </mxCell>
        <mxCell id="VEAYyaZn8zi7UT8q09-s-172" value="" style="shape=partialRectangle;connectable=0;fillColor=none;top=0;left=0;bottom=0;right=0;editable=1;overflow=hidden;whiteSpace=wrap;html=1;hachureGap=4;fontFamily=Helvetica;fontSize=20;rounded=1;" vertex="1" parent="VEAYyaZn8zi7UT8q09-s-171">
          <mxGeometry width="30" height="30" as="geometry">
            <mxRectangle width="30" height="30" as="alternateBounds" />
          </mxGeometry>
        </mxCell>
        <mxCell id="VEAYyaZn8zi7UT8q09-s-173" value="title" style="shape=partialRectangle;connectable=0;fillColor=none;top=0;left=0;bottom=0;right=0;align=left;spacingLeft=6;overflow=hidden;whiteSpace=wrap;html=1;hachureGap=4;fontFamily=Helvetica;fontSize=20;rounded=1;" vertex="1" parent="VEAYyaZn8zi7UT8q09-s-171">
          <mxGeometry x="30" width="160" height="30" as="geometry">
            <mxRectangle width="160" height="30" as="alternateBounds" />
          </mxGeometry>
        </mxCell>
        <mxCell id="VEAYyaZn8zi7UT8q09-s-174" value="TEXT" style="shape=partialRectangle;connectable=0;fillColor=none;top=0;left=0;bottom=0;right=0;align=left;spacingLeft=6;overflow=hidden;whiteSpace=wrap;html=1;hachureGap=4;fontFamily=Helvetica;fontSize=20;rounded=1;" vertex="1" parent="VEAYyaZn8zi7UT8q09-s-171">
          <mxGeometry x="190" width="140" height="30" as="geometry">
            <mxRectangle width="140" height="30" as="alternateBounds" />
          </mxGeometry>
        </mxCell>
        <mxCell id="VEAYyaZn8zi7UT8q09-s-175" value="" style="shape=tableRow;horizontal=0;startSize=0;swimlaneHead=0;swimlaneBody=0;fillColor=none;collapsible=0;dropTarget=0;points=[[0,0.5],[1,0.5]];portConstraint=eastwest;top=0;left=0;right=0;bottom=0;hachureGap=4;fontFamily=Helvetica;fontSize=20;rounded=1;" vertex="1" parent="VEAYyaZn8zi7UT8q09-s-166">
          <mxGeometry y="90" width="330" height="30" as="geometry" />
        </mxCell>
        <mxCell id="VEAYyaZn8zi7UT8q09-s-176" value="" style="shape=partialRectangle;connectable=0;fillColor=none;top=0;left=0;bottom=0;right=0;editable=1;overflow=hidden;whiteSpace=wrap;html=1;hachureGap=4;fontFamily=Helvetica;fontSize=20;rounded=1;" vertex="1" parent="VEAYyaZn8zi7UT8q09-s-175">
          <mxGeometry width="30" height="30" as="geometry">
            <mxRectangle width="30" height="30" as="alternateBounds" />
          </mxGeometry>
        </mxCell>
        <mxCell id="VEAYyaZn8zi7UT8q09-s-177" value="street" style="shape=partialRectangle;connectable=0;fillColor=none;top=0;left=0;bottom=0;right=0;align=left;spacingLeft=6;overflow=hidden;whiteSpace=wrap;html=1;hachureGap=4;fontFamily=Helvetica;fontSize=20;rounded=1;" vertex="1" parent="VEAYyaZn8zi7UT8q09-s-175">
          <mxGeometry x="30" width="160" height="30" as="geometry">
            <mxRectangle width="160" height="30" as="alternateBounds" />
          </mxGeometry>
        </mxCell>
        <mxCell id="VEAYyaZn8zi7UT8q09-s-178" value="TEXT" style="shape=partialRectangle;connectable=0;fillColor=none;top=0;left=0;bottom=0;right=0;align=left;spacingLeft=6;overflow=hidden;whiteSpace=wrap;html=1;hachureGap=4;fontFamily=Helvetica;fontSize=20;rounded=1;" vertex="1" parent="VEAYyaZn8zi7UT8q09-s-175">
          <mxGeometry x="190" width="140" height="30" as="geometry">
            <mxRectangle width="140" height="30" as="alternateBounds" />
          </mxGeometry>
        </mxCell>
        <mxCell id="VEAYyaZn8zi7UT8q09-s-179" value="" style="shape=tableRow;horizontal=0;startSize=0;swimlaneHead=0;swimlaneBody=0;fillColor=none;collapsible=0;dropTarget=0;points=[[0,0.5],[1,0.5]];portConstraint=eastwest;top=0;left=0;right=0;bottom=0;hachureGap=4;fontFamily=Helvetica;fontSize=20;rounded=1;" vertex="1" parent="VEAYyaZn8zi7UT8q09-s-166">
          <mxGeometry y="120" width="330" height="30" as="geometry" />
        </mxCell>
        <mxCell id="VEAYyaZn8zi7UT8q09-s-180" value="" style="shape=partialRectangle;connectable=0;fillColor=none;top=0;left=0;bottom=0;right=0;editable=1;overflow=hidden;whiteSpace=wrap;html=1;hachureGap=4;fontFamily=Helvetica;fontSize=20;rounded=1;" vertex="1" parent="VEAYyaZn8zi7UT8q09-s-179">
          <mxGeometry width="30" height="30" as="geometry">
            <mxRectangle width="30" height="30" as="alternateBounds" />
          </mxGeometry>
        </mxCell>
        <mxCell id="VEAYyaZn8zi7UT8q09-s-181" value="city" style="shape=partialRectangle;connectable=0;fillColor=none;top=0;left=0;bottom=0;right=0;align=left;spacingLeft=6;overflow=hidden;whiteSpace=wrap;html=1;hachureGap=4;fontFamily=Helvetica;fontSize=20;rounded=1;" vertex="1" parent="VEAYyaZn8zi7UT8q09-s-179">
          <mxGeometry x="30" width="160" height="30" as="geometry">
            <mxRectangle width="160" height="30" as="alternateBounds" />
          </mxGeometry>
        </mxCell>
        <mxCell id="VEAYyaZn8zi7UT8q09-s-182" value="TEXT" style="shape=partialRectangle;connectable=0;fillColor=none;top=0;left=0;bottom=0;right=0;align=left;spacingLeft=6;overflow=hidden;whiteSpace=wrap;html=1;hachureGap=4;fontFamily=Helvetica;fontSize=20;rounded=1;" vertex="1" parent="VEAYyaZn8zi7UT8q09-s-179">
          <mxGeometry x="190" width="140" height="30" as="geometry">
            <mxRectangle width="140" height="30" as="alternateBounds" />
          </mxGeometry>
        </mxCell>
        <mxCell id="VEAYyaZn8zi7UT8q09-s-183" value="" style="shape=tableRow;horizontal=0;startSize=0;swimlaneHead=0;swimlaneBody=0;fillColor=none;collapsible=0;dropTarget=0;points=[[0,0.5],[1,0.5]];portConstraint=eastwest;top=0;left=0;right=0;bottom=0;hachureGap=4;fontFamily=Helvetica;fontSize=20;rounded=1;" vertex="1" parent="VEAYyaZn8zi7UT8q09-s-166">
          <mxGeometry y="150" width="330" height="30" as="geometry" />
        </mxCell>
        <mxCell id="VEAYyaZn8zi7UT8q09-s-184" value="" style="shape=partialRectangle;connectable=0;fillColor=none;top=0;left=0;bottom=0;right=0;editable=1;overflow=hidden;whiteSpace=wrap;html=1;hachureGap=4;fontFamily=Helvetica;fontSize=20;rounded=1;" vertex="1" parent="VEAYyaZn8zi7UT8q09-s-183">
          <mxGeometry width="30" height="30" as="geometry">
            <mxRectangle width="30" height="30" as="alternateBounds" />
          </mxGeometry>
        </mxCell>
        <mxCell id="VEAYyaZn8zi7UT8q09-s-185" value="country" style="shape=partialRectangle;connectable=0;fillColor=none;top=0;left=0;bottom=0;right=0;align=left;spacingLeft=6;overflow=hidden;whiteSpace=wrap;html=1;hachureGap=4;fontFamily=Helvetica;fontSize=20;rounded=1;" vertex="1" parent="VEAYyaZn8zi7UT8q09-s-183">
          <mxGeometry x="30" width="160" height="30" as="geometry">
            <mxRectangle width="160" height="30" as="alternateBounds" />
          </mxGeometry>
        </mxCell>
        <mxCell id="VEAYyaZn8zi7UT8q09-s-186" value="TEXT" style="shape=partialRectangle;connectable=0;fillColor=none;top=0;left=0;bottom=0;right=0;align=left;spacingLeft=6;overflow=hidden;whiteSpace=wrap;html=1;hachureGap=4;fontFamily=Helvetica;fontSize=20;rounded=1;" vertex="1" parent="VEAYyaZn8zi7UT8q09-s-183">
          <mxGeometry x="190" width="140" height="30" as="geometry">
            <mxRectangle width="140" height="30" as="alternateBounds" />
          </mxGeometry>
        </mxCell>
        <mxCell id="VEAYyaZn8zi7UT8q09-s-200" value="" style="shape=tableRow;horizontal=0;startSize=0;swimlaneHead=0;swimlaneBody=0;fillColor=none;collapsible=0;dropTarget=0;points=[[0,0.5],[1,0.5]];portConstraint=eastwest;top=0;left=0;right=0;bottom=0;hachureGap=4;fontFamily=Helvetica;fontSize=20;rounded=1;" vertex="1" parent="VEAYyaZn8zi7UT8q09-s-166">
          <mxGeometry y="180" width="330" height="30" as="geometry" />
        </mxCell>
        <mxCell id="VEAYyaZn8zi7UT8q09-s-201" value="FK" style="shape=partialRectangle;connectable=0;fillColor=none;top=0;left=0;bottom=0;right=0;editable=1;overflow=hidden;whiteSpace=wrap;html=1;hachureGap=4;fontFamily=Helvetica;fontSize=20;rounded=1;" vertex="1" parent="VEAYyaZn8zi7UT8q09-s-200">
          <mxGeometry width="30" height="30" as="geometry">
            <mxRectangle width="30" height="30" as="alternateBounds" />
          </mxGeometry>
        </mxCell>
        <mxCell id="VEAYyaZn8zi7UT8q09-s-202" value="em_personal_id" style="shape=partialRectangle;connectable=0;fillColor=none;top=0;left=0;bottom=0;right=0;align=left;spacingLeft=6;overflow=hidden;whiteSpace=wrap;html=1;hachureGap=4;fontFamily=Helvetica;fontSize=20;rounded=1;" vertex="1" parent="VEAYyaZn8zi7UT8q09-s-200">
          <mxGeometry x="30" width="160" height="30" as="geometry">
            <mxRectangle width="160" height="30" as="alternateBounds" />
          </mxGeometry>
        </mxCell>
        <mxCell id="VEAYyaZn8zi7UT8q09-s-203" value="BIGINT" style="shape=partialRectangle;connectable=0;fillColor=none;top=0;left=0;bottom=0;right=0;align=left;spacingLeft=6;overflow=hidden;whiteSpace=wrap;html=1;hachureGap=4;fontFamily=Helvetica;fontSize=20;rounded=1;" vertex="1" parent="VEAYyaZn8zi7UT8q09-s-200">
          <mxGeometry x="190" width="140" height="30" as="geometry">
            <mxRectangle width="140" height="30" as="alternateBounds" />
          </mxGeometry>
        </mxCell>
        <mxCell id="VEAYyaZn8zi7UT8q09-s-204" value="" style="shape=tableRow;horizontal=0;startSize=0;swimlaneHead=0;swimlaneBody=0;fillColor=none;collapsible=0;dropTarget=0;points=[[0,0.5],[1,0.5]];portConstraint=eastwest;top=0;left=0;right=0;bottom=0;hachureGap=4;fontFamily=Helvetica;fontSize=20;rounded=1;" vertex="1" parent="VEAYyaZn8zi7UT8q09-s-166">
          <mxGeometry y="210" width="330" height="30" as="geometry" />
        </mxCell>
        <mxCell id="VEAYyaZn8zi7UT8q09-s-205" value="FK" style="shape=partialRectangle;connectable=0;fillColor=none;top=0;left=0;bottom=0;right=0;editable=1;overflow=hidden;whiteSpace=wrap;html=1;hachureGap=4;fontFamily=Helvetica;fontSize=20;rounded=1;" vertex="1" parent="VEAYyaZn8zi7UT8q09-s-204">
          <mxGeometry width="30" height="30" as="geometry">
            <mxRectangle width="30" height="30" as="alternateBounds" />
          </mxGeometry>
        </mxCell>
        <mxCell id="VEAYyaZn8zi7UT8q09-s-206" value="com_branch_id" style="shape=partialRectangle;connectable=0;fillColor=none;top=0;left=0;bottom=0;right=0;align=left;spacingLeft=6;overflow=hidden;whiteSpace=wrap;html=1;hachureGap=4;fontFamily=Helvetica;fontSize=20;rounded=1;" vertex="1" parent="VEAYyaZn8zi7UT8q09-s-204">
          <mxGeometry x="30" width="160" height="30" as="geometry">
            <mxRectangle width="160" height="30" as="alternateBounds" />
          </mxGeometry>
        </mxCell>
        <mxCell id="VEAYyaZn8zi7UT8q09-s-207" value="BIGINT" style="shape=partialRectangle;connectable=0;fillColor=none;top=0;left=0;bottom=0;right=0;align=left;spacingLeft=6;overflow=hidden;whiteSpace=wrap;html=1;hachureGap=4;fontFamily=Helvetica;fontSize=20;rounded=1;" vertex="1" parent="VEAYyaZn8zi7UT8q09-s-204">
          <mxGeometry x="190" width="140" height="30" as="geometry">
            <mxRectangle width="140" height="30" as="alternateBounds" />
          </mxGeometry>
        </mxCell>
        <mxCell id="VEAYyaZn8zi7UT8q09-s-187" value="" style="shape=tableRow;horizontal=0;startSize=0;swimlaneHead=0;swimlaneBody=0;fillColor=none;collapsible=0;dropTarget=0;points=[[0,0.5],[1,0.5]];portConstraint=eastwest;top=0;left=0;right=0;bottom=0;hachureGap=4;fontFamily=Helvetica;fontSize=20;rounded=1;" vertex="1" parent="VEAYyaZn8zi7UT8q09-s-166">
          <mxGeometry y="240" width="330" height="30" as="geometry" />
        </mxCell>
        <mxCell id="VEAYyaZn8zi7UT8q09-s-188" value="" style="shape=partialRectangle;connectable=0;fillColor=none;top=0;left=0;bottom=0;right=0;editable=1;overflow=hidden;whiteSpace=wrap;html=1;hachureGap=4;fontFamily=Helvetica;fontSize=20;rounded=1;" vertex="1" parent="VEAYyaZn8zi7UT8q09-s-187">
          <mxGeometry width="30" height="30" as="geometry">
            <mxRectangle width="30" height="30" as="alternateBounds" />
          </mxGeometry>
        </mxCell>
        <mxCell id="VEAYyaZn8zi7UT8q09-s-189" value="created_at" style="shape=partialRectangle;connectable=0;fillColor=none;top=0;left=0;bottom=0;right=0;align=left;spacingLeft=6;overflow=hidden;whiteSpace=wrap;html=1;hachureGap=4;fontFamily=Helvetica;fontSize=20;rounded=1;" vertex="1" parent="VEAYyaZn8zi7UT8q09-s-187">
          <mxGeometry x="30" width="160" height="30" as="geometry">
            <mxRectangle width="160" height="30" as="alternateBounds" />
          </mxGeometry>
        </mxCell>
        <mxCell id="VEAYyaZn8zi7UT8q09-s-190" value="TIMESTAMP" style="shape=partialRectangle;connectable=0;fillColor=none;top=0;left=0;bottom=0;right=0;align=left;spacingLeft=6;overflow=hidden;whiteSpace=wrap;html=1;hachureGap=4;fontFamily=Helvetica;fontSize=20;rounded=1;" vertex="1" parent="VEAYyaZn8zi7UT8q09-s-187">
          <mxGeometry x="190" width="140" height="30" as="geometry">
            <mxRectangle width="140" height="30" as="alternateBounds" />
          </mxGeometry>
        </mxCell>
        <mxCell id="VEAYyaZn8zi7UT8q09-s-191" value="" style="edgeStyle=orthogonalEdgeStyle;fontSize=12;html=1;endArrow=ERzeroToMany;startArrow=baseDash;rounded=1;spacing=9;spacingRight=10;endSize=16;targetPerimeterSpacing=16;startSize=16;endFill=0;startFill=0;exitX=0.068;exitY=0.012;exitDx=0;exitDy=0;exitPerimeter=0;" edge="1" parent="1" source="VEAYyaZn8zi7UT8q09-s-14" target="VEAYyaZn8zi7UT8q09-s-114">
          <mxGeometry width="100" height="100" relative="1" as="geometry">
            <mxPoint x="720" y="390" as="sourcePoint" />
            <mxPoint x="970" y="600" as="targetPoint" />
            <Array as="points">
              <mxPoint x="830" y="-119" />
              <mxPoint x="830" y="820" />
            </Array>
          </mxGeometry>
        </mxCell>
        <mxCell id="VEAYyaZn8zi7UT8q09-s-209" value="" style="edgeStyle=orthogonalEdgeStyle;fontSize=12;html=1;endArrow=ERzeroToMany;startArrow=baseDash;rounded=1;spacing=9;spacingRight=10;endSize=16;targetPerimeterSpacing=16;startSize=16;endFill=0;startFill=0;entryX=-0.012;entryY=0.8;entryDx=0;entryDy=0;entryPerimeter=0;" edge="1" parent="1" source="VEAYyaZn8zi7UT8q09-s-14" target="VEAYyaZn8zi7UT8q09-s-204">
          <mxGeometry width="100" height="100" relative="1" as="geometry">
            <mxPoint x="620" y="180" as="sourcePoint" />
            <mxPoint x="960" y="690" as="targetPoint" />
            <Array as="points">
              <mxPoint x="880" y="-60" />
              <mxPoint x="880" y="624" />
            </Array>
          </mxGeometry>
        </mxCell>
        <mxCell id="VEAYyaZn8zi7UT8q09-s-210" value="" style="edgeStyle=orthogonalEdgeStyle;fontSize=12;html=1;endArrow=ERzeroToMany;startArrow=baseDash;rounded=1;spacing=9;spacingRight=10;endSize=16;targetPerimeterSpacing=16;startSize=16;endFill=0;startFill=0;" edge="1" parent="1" source="VEAYyaZn8zi7UT8q09-s-77" target="VEAYyaZn8zi7UT8q09-s-167">
          <mxGeometry width="100" height="100" relative="1" as="geometry">
            <mxPoint x="703" y="384" as="sourcePoint" />
            <mxPoint x="1400" y="490" as="targetPoint" />
            <Array as="points">
              <mxPoint x="1480" y="305" />
              <mxPoint x="1480" y="420" />
            </Array>
          </mxGeometry>
        </mxCell>
        <mxCell id="VEAYyaZn8zi7UT8q09-s-217" value="" style="edgeStyle=orthogonalEdgeStyle;fontSize=12;html=1;endArrow=ERoneToMany;startArrow=baseDash;rounded=1;spacing=9;spacingRight=10;endSize=16;targetPerimeterSpacing=16;startSize=16;endFill=0;startFill=0;exitX=1.001;exitY=0.127;exitDx=0;exitDy=0;exitPerimeter=0;" edge="1" parent="1" source="VEAYyaZn8zi7UT8q09-s-53" target="VEAYyaZn8zi7UT8q09-s-213">
          <mxGeometry width="100" height="100" relative="1" as="geometry">
            <mxPoint x="1360" y="290" as="sourcePoint" />
            <mxPoint x="1360" y="455" as="targetPoint" />
            <Array as="points">
              <mxPoint x="1504" y="199" />
              <mxPoint x="1504" y="545" />
            </Array>
          </mxGeometry>
        </mxCell>
        <mxCell id="VEAYyaZn8zi7UT8q09-s-218" value="em_contract" style="shape=table;startSize=30;container=1;collapsible=1;childLayout=tableLayout;fixedRows=1;rowLines=0;fontStyle=1;align=center;resizeLast=1;html=1;hachureGap=4;fontFamily=Helvetica;fontSize=20;fillColor=#eeeeee;strokeColor=#36393d;rounded=1;" vertex="1" parent="1">
          <mxGeometry x="1620" y="660" width="340" height="240.00000000000068" as="geometry" />
        </mxCell>
        <mxCell id="VEAYyaZn8zi7UT8q09-s-219" value="" style="shape=tableRow;horizontal=0;startSize=0;swimlaneHead=0;swimlaneBody=0;fillColor=none;collapsible=0;dropTarget=0;points=[[0,0.5],[1,0.5]];portConstraint=eastwest;top=0;left=0;right=0;bottom=1;hachureGap=4;fontFamily=Helvetica;fontSize=20;rounded=1;" vertex="1" parent="VEAYyaZn8zi7UT8q09-s-218">
          <mxGeometry y="30" width="340" height="30" as="geometry" />
        </mxCell>
        <mxCell id="VEAYyaZn8zi7UT8q09-s-220" value="PK" style="shape=partialRectangle;connectable=0;fillColor=none;top=0;left=0;bottom=0;right=0;fontStyle=1;overflow=hidden;whiteSpace=wrap;html=1;hachureGap=4;fontFamily=Helvetica;fontSize=20;rounded=1;" vertex="1" parent="VEAYyaZn8zi7UT8q09-s-219">
          <mxGeometry width="30" height="30" as="geometry">
            <mxRectangle width="30" height="30" as="alternateBounds" />
          </mxGeometry>
        </mxCell>
        <mxCell id="VEAYyaZn8zi7UT8q09-s-221" value="UniqueID" style="shape=partialRectangle;connectable=0;fillColor=none;top=0;left=0;bottom=0;right=0;align=left;spacingLeft=6;fontStyle=0;overflow=hidden;whiteSpace=wrap;html=1;hachureGap=4;fontFamily=Helvetica;fontSize=20;rounded=1;" vertex="1" parent="VEAYyaZn8zi7UT8q09-s-219">
          <mxGeometry x="30" width="180" height="30" as="geometry">
            <mxRectangle width="180" height="30" as="alternateBounds" />
          </mxGeometry>
        </mxCell>
        <mxCell id="VEAYyaZn8zi7UT8q09-s-222" value="BIGSERIAL" style="shape=partialRectangle;connectable=0;fillColor=none;top=0;left=0;bottom=0;right=0;align=left;spacingLeft=6;fontStyle=0;overflow=hidden;whiteSpace=wrap;html=1;hachureGap=4;fontFamily=Helvetica;fontSize=20;rounded=1;" vertex="1" parent="VEAYyaZn8zi7UT8q09-s-219">
          <mxGeometry x="210" width="130" height="30" as="geometry">
            <mxRectangle width="130" height="30" as="alternateBounds" />
          </mxGeometry>
        </mxCell>
        <mxCell id="VEAYyaZn8zi7UT8q09-s-223" value="" style="shape=tableRow;horizontal=0;startSize=0;swimlaneHead=0;swimlaneBody=0;fillColor=none;collapsible=0;dropTarget=0;points=[[0,0.5],[1,0.5]];portConstraint=eastwest;top=0;left=0;right=0;bottom=0;hachureGap=4;fontFamily=Helvetica;fontSize=20;rounded=1;" vertex="1" parent="VEAYyaZn8zi7UT8q09-s-218">
          <mxGeometry y="60" width="340" height="30" as="geometry" />
        </mxCell>
        <mxCell id="VEAYyaZn8zi7UT8q09-s-224" value="" style="shape=partialRectangle;connectable=0;fillColor=none;top=0;left=0;bottom=0;right=0;editable=1;overflow=hidden;whiteSpace=wrap;html=1;hachureGap=4;fontFamily=Helvetica;fontSize=20;rounded=1;" vertex="1" parent="VEAYyaZn8zi7UT8q09-s-223">
          <mxGeometry width="30" height="30" as="geometry">
            <mxRectangle width="30" height="30" as="alternateBounds" />
          </mxGeometry>
        </mxCell>
        <mxCell id="VEAYyaZn8zi7UT8q09-s-225" value="start_date" style="shape=partialRectangle;connectable=0;fillColor=none;top=0;left=0;bottom=0;right=0;align=left;spacingLeft=6;overflow=hidden;whiteSpace=wrap;html=1;hachureGap=4;fontFamily=Helvetica;fontSize=20;rounded=1;" vertex="1" parent="VEAYyaZn8zi7UT8q09-s-223">
          <mxGeometry x="30" width="180" height="30" as="geometry">
            <mxRectangle width="180" height="30" as="alternateBounds" />
          </mxGeometry>
        </mxCell>
        <mxCell id="VEAYyaZn8zi7UT8q09-s-226" value="DATE" style="shape=partialRectangle;connectable=0;fillColor=none;top=0;left=0;bottom=0;right=0;align=left;spacingLeft=6;overflow=hidden;whiteSpace=wrap;html=1;hachureGap=4;fontFamily=Helvetica;fontSize=20;rounded=1;" vertex="1" parent="VEAYyaZn8zi7UT8q09-s-223">
          <mxGeometry x="210" width="130" height="30" as="geometry">
            <mxRectangle width="130" height="30" as="alternateBounds" />
          </mxGeometry>
        </mxCell>
        <mxCell id="VEAYyaZn8zi7UT8q09-s-231" value="" style="shape=tableRow;horizontal=0;startSize=0;swimlaneHead=0;swimlaneBody=0;fillColor=none;collapsible=0;dropTarget=0;points=[[0,0.5],[1,0.5]];portConstraint=eastwest;top=0;left=0;right=0;bottom=0;hachureGap=4;fontFamily=Helvetica;fontSize=20;rounded=1;" vertex="1" parent="VEAYyaZn8zi7UT8q09-s-218">
          <mxGeometry y="90" width="340" height="30" as="geometry" />
        </mxCell>
        <mxCell id="VEAYyaZn8zi7UT8q09-s-232" value="" style="shape=partialRectangle;connectable=0;fillColor=none;top=0;left=0;bottom=0;right=0;editable=1;overflow=hidden;whiteSpace=wrap;html=1;hachureGap=4;fontFamily=Helvetica;fontSize=20;rounded=1;" vertex="1" parent="VEAYyaZn8zi7UT8q09-s-231">
          <mxGeometry width="30" height="30" as="geometry">
            <mxRectangle width="30" height="30" as="alternateBounds" />
          </mxGeometry>
        </mxCell>
        <mxCell id="VEAYyaZn8zi7UT8q09-s-233" value="end_date" style="shape=partialRectangle;connectable=0;fillColor=none;top=0;left=0;bottom=0;right=0;align=left;spacingLeft=6;overflow=hidden;whiteSpace=wrap;html=1;hachureGap=4;fontFamily=Helvetica;fontSize=20;rounded=1;" vertex="1" parent="VEAYyaZn8zi7UT8q09-s-231">
          <mxGeometry x="30" width="180" height="30" as="geometry">
            <mxRectangle width="180" height="30" as="alternateBounds" />
          </mxGeometry>
        </mxCell>
        <mxCell id="VEAYyaZn8zi7UT8q09-s-234" value="DATE" style="shape=partialRectangle;connectable=0;fillColor=none;top=0;left=0;bottom=0;right=0;align=left;spacingLeft=6;overflow=hidden;whiteSpace=wrap;html=1;hachureGap=4;fontFamily=Helvetica;fontSize=20;rounded=1;" vertex="1" parent="VEAYyaZn8zi7UT8q09-s-231">
          <mxGeometry x="210" width="130" height="30" as="geometry">
            <mxRectangle width="130" height="30" as="alternateBounds" />
          </mxGeometry>
        </mxCell>
        <mxCell id="VEAYyaZn8zi7UT8q09-s-235" value="" style="shape=tableRow;horizontal=0;startSize=0;swimlaneHead=0;swimlaneBody=0;fillColor=none;collapsible=0;dropTarget=0;points=[[0,0.5],[1,0.5]];portConstraint=eastwest;top=0;left=0;right=0;bottom=0;hachureGap=4;fontFamily=Helvetica;fontSize=20;rounded=1;" vertex="1" parent="VEAYyaZn8zi7UT8q09-s-218">
          <mxGeometry y="120" width="340" height="30" as="geometry" />
        </mxCell>
        <mxCell id="VEAYyaZn8zi7UT8q09-s-236" value="" style="shape=partialRectangle;connectable=0;fillColor=none;top=0;left=0;bottom=0;right=0;editable=1;overflow=hidden;whiteSpace=wrap;html=1;hachureGap=4;fontFamily=Helvetica;fontSize=20;rounded=1;" vertex="1" parent="VEAYyaZn8zi7UT8q09-s-235">
          <mxGeometry width="30" height="30" as="geometry">
            <mxRectangle width="30" height="30" as="alternateBounds" />
          </mxGeometry>
        </mxCell>
        <mxCell id="VEAYyaZn8zi7UT8q09-s-237" value="duration" style="shape=partialRectangle;connectable=0;fillColor=none;top=0;left=0;bottom=0;right=0;align=left;spacingLeft=6;overflow=hidden;whiteSpace=wrap;html=1;hachureGap=4;fontFamily=Helvetica;fontSize=20;rounded=1;" vertex="1" parent="VEAYyaZn8zi7UT8q09-s-235">
          <mxGeometry x="30" width="180" height="30" as="geometry">
            <mxRectangle width="180" height="30" as="alternateBounds" />
          </mxGeometry>
        </mxCell>
        <mxCell id="VEAYyaZn8zi7UT8q09-s-238" value="INT" style="shape=partialRectangle;connectable=0;fillColor=none;top=0;left=0;bottom=0;right=0;align=left;spacingLeft=6;overflow=hidden;whiteSpace=wrap;html=1;hachureGap=4;fontFamily=Helvetica;fontSize=20;rounded=1;" vertex="1" parent="VEAYyaZn8zi7UT8q09-s-235">
          <mxGeometry x="210" width="130" height="30" as="geometry">
            <mxRectangle width="130" height="30" as="alternateBounds" />
          </mxGeometry>
        </mxCell>
        <mxCell id="VEAYyaZn8zi7UT8q09-s-239" value="" style="shape=tableRow;horizontal=0;startSize=0;swimlaneHead=0;swimlaneBody=0;fillColor=none;collapsible=0;dropTarget=0;points=[[0,0.5],[1,0.5]];portConstraint=eastwest;top=0;left=0;right=0;bottom=0;hachureGap=4;fontFamily=Helvetica;fontSize=20;rounded=1;" vertex="1" parent="VEAYyaZn8zi7UT8q09-s-218">
          <mxGeometry y="150" width="340" height="30" as="geometry" />
        </mxCell>
        <mxCell id="VEAYyaZn8zi7UT8q09-s-240" value="" style="shape=partialRectangle;connectable=0;fillColor=none;top=0;left=0;bottom=0;right=0;editable=1;overflow=hidden;whiteSpace=wrap;html=1;hachureGap=4;fontFamily=Helvetica;fontSize=20;rounded=1;" vertex="1" parent="VEAYyaZn8zi7UT8q09-s-239">
          <mxGeometry width="30" height="30" as="geometry">
            <mxRectangle width="30" height="30" as="alternateBounds" />
          </mxGeometry>
        </mxCell>
        <mxCell id="VEAYyaZn8zi7UT8q09-s-241" value="notes" style="shape=partialRectangle;connectable=0;fillColor=none;top=0;left=0;bottom=0;right=0;align=left;spacingLeft=6;overflow=hidden;whiteSpace=wrap;html=1;hachureGap=4;fontFamily=Helvetica;fontSize=20;rounded=1;" vertex="1" parent="VEAYyaZn8zi7UT8q09-s-239">
          <mxGeometry x="30" width="180" height="30" as="geometry">
            <mxRectangle width="180" height="30" as="alternateBounds" />
          </mxGeometry>
        </mxCell>
        <mxCell id="VEAYyaZn8zi7UT8q09-s-242" value="TEXT" style="shape=partialRectangle;connectable=0;fillColor=none;top=0;left=0;bottom=0;right=0;align=left;spacingLeft=6;overflow=hidden;whiteSpace=wrap;html=1;hachureGap=4;fontFamily=Helvetica;fontSize=20;rounded=1;" vertex="1" parent="VEAYyaZn8zi7UT8q09-s-239">
          <mxGeometry x="210" width="130" height="30" as="geometry">
            <mxRectangle width="130" height="30" as="alternateBounds" />
          </mxGeometry>
        </mxCell>
        <mxCell id="VEAYyaZn8zi7UT8q09-s-243" value="" style="shape=tableRow;horizontal=0;startSize=0;swimlaneHead=0;swimlaneBody=0;fillColor=none;collapsible=0;dropTarget=0;points=[[0,0.5],[1,0.5]];portConstraint=eastwest;top=0;left=0;right=0;bottom=0;hachureGap=4;fontFamily=Helvetica;fontSize=20;rounded=1;" vertex="1" parent="VEAYyaZn8zi7UT8q09-s-218">
          <mxGeometry y="180" width="340" height="30" as="geometry" />
        </mxCell>
        <mxCell id="VEAYyaZn8zi7UT8q09-s-244" value="FK" style="shape=partialRectangle;connectable=0;fillColor=none;top=0;left=0;bottom=0;right=0;editable=1;overflow=hidden;whiteSpace=wrap;html=1;hachureGap=4;fontFamily=Helvetica;fontSize=20;rounded=1;" vertex="1" parent="VEAYyaZn8zi7UT8q09-s-243">
          <mxGeometry width="30" height="30" as="geometry">
            <mxRectangle width="30" height="30" as="alternateBounds" />
          </mxGeometry>
        </mxCell>
        <mxCell id="VEAYyaZn8zi7UT8q09-s-245" value="em_personal_id" style="shape=partialRectangle;connectable=0;fillColor=none;top=0;left=0;bottom=0;right=0;align=left;spacingLeft=6;overflow=hidden;whiteSpace=wrap;html=1;hachureGap=4;fontFamily=Helvetica;fontSize=20;rounded=1;" vertex="1" parent="VEAYyaZn8zi7UT8q09-s-243">
          <mxGeometry x="30" width="180" height="30" as="geometry">
            <mxRectangle width="180" height="30" as="alternateBounds" />
          </mxGeometry>
        </mxCell>
        <mxCell id="VEAYyaZn8zi7UT8q09-s-246" value="BIGINT" style="shape=partialRectangle;connectable=0;fillColor=none;top=0;left=0;bottom=0;right=0;align=left;spacingLeft=6;overflow=hidden;whiteSpace=wrap;html=1;hachureGap=4;fontFamily=Helvetica;fontSize=20;rounded=1;" vertex="1" parent="VEAYyaZn8zi7UT8q09-s-243">
          <mxGeometry x="210" width="130" height="30" as="geometry">
            <mxRectangle width="130" height="30" as="alternateBounds" />
          </mxGeometry>
        </mxCell>
        <mxCell id="VEAYyaZn8zi7UT8q09-s-227" value="" style="shape=tableRow;horizontal=0;startSize=0;swimlaneHead=0;swimlaneBody=0;fillColor=none;collapsible=0;dropTarget=0;points=[[0,0.5],[1,0.5]];portConstraint=eastwest;top=0;left=0;right=0;bottom=0;hachureGap=4;fontFamily=Helvetica;fontSize=20;rounded=1;" vertex="1" parent="VEAYyaZn8zi7UT8q09-s-218">
          <mxGeometry y="210" width="340" height="30" as="geometry" />
        </mxCell>
        <mxCell id="VEAYyaZn8zi7UT8q09-s-228" value="" style="shape=partialRectangle;connectable=0;fillColor=none;top=0;left=0;bottom=0;right=0;editable=1;overflow=hidden;whiteSpace=wrap;html=1;hachureGap=4;fontFamily=Helvetica;fontSize=20;rounded=1;" vertex="1" parent="VEAYyaZn8zi7UT8q09-s-227">
          <mxGeometry width="30" height="30" as="geometry">
            <mxRectangle width="30" height="30" as="alternateBounds" />
          </mxGeometry>
        </mxCell>
        <mxCell id="VEAYyaZn8zi7UT8q09-s-229" value="created_at" style="shape=partialRectangle;connectable=0;fillColor=none;top=0;left=0;bottom=0;right=0;align=left;spacingLeft=6;overflow=hidden;whiteSpace=wrap;html=1;hachureGap=4;fontFamily=Helvetica;fontSize=20;rounded=1;" vertex="1" parent="VEAYyaZn8zi7UT8q09-s-227">
          <mxGeometry x="30" width="180" height="30" as="geometry">
            <mxRectangle width="180" height="30" as="alternateBounds" />
          </mxGeometry>
        </mxCell>
        <mxCell id="VEAYyaZn8zi7UT8q09-s-230" value="TIMESTAMP" style="shape=partialRectangle;connectable=0;fillColor=none;top=0;left=0;bottom=0;right=0;align=left;spacingLeft=6;overflow=hidden;whiteSpace=wrap;html=1;hachureGap=4;fontFamily=Helvetica;fontSize=20;rounded=1;" vertex="1" parent="VEAYyaZn8zi7UT8q09-s-227">
          <mxGeometry x="210" width="130" height="30" as="geometry">
            <mxRectangle width="130" height="30" as="alternateBounds" />
          </mxGeometry>
        </mxCell>
        <mxCell id="VEAYyaZn8zi7UT8q09-s-247" value="" style="edgeStyle=orthogonalEdgeStyle;fontSize=12;html=1;endArrow=ERmandOne;startArrow=ERmandOne;rounded=1;entryX=1.007;entryY=0.049;entryDx=0;entryDy=0;entryPerimeter=0;" edge="1" parent="1" source="VEAYyaZn8zi7UT8q09-s-218" target="VEAYyaZn8zi7UT8q09-s-76">
          <mxGeometry width="100" height="100" relative="1" as="geometry">
            <mxPoint x="2040" y="650" as="sourcePoint" />
            <mxPoint x="2160" y="260" as="targetPoint" />
            <Array as="points">
              <mxPoint x="2000" y="680" />
              <mxPoint x="2000" y="276" />
            </Array>
          </mxGeometry>
        </mxCell>
        <mxCell id="VEAYyaZn8zi7UT8q09-s-248" value="em_salary" style="shape=table;startSize=30;container=1;collapsible=1;childLayout=tableLayout;fixedRows=1;rowLines=0;fontStyle=1;align=center;resizeLast=1;html=1;hachureGap=4;fontFamily=Helvetica;fontSize=20;fillColor=#eeeeee;strokeColor=#36393d;rounded=1;" vertex="1" parent="1">
          <mxGeometry x="1620" y="50" width="340" height="150" as="geometry" />
        </mxCell>
        <mxCell id="VEAYyaZn8zi7UT8q09-s-249" value="" style="shape=tableRow;horizontal=0;startSize=0;swimlaneHead=0;swimlaneBody=0;fillColor=none;collapsible=0;dropTarget=0;points=[[0,0.5],[1,0.5]];portConstraint=eastwest;top=0;left=0;right=0;bottom=1;hachureGap=4;fontFamily=Helvetica;fontSize=20;rounded=1;" vertex="1" parent="VEAYyaZn8zi7UT8q09-s-248">
          <mxGeometry y="30" width="340" height="30" as="geometry" />
        </mxCell>
        <mxCell id="VEAYyaZn8zi7UT8q09-s-250" value="PK" style="shape=partialRectangle;connectable=0;fillColor=none;top=0;left=0;bottom=0;right=0;fontStyle=1;overflow=hidden;whiteSpace=wrap;html=1;hachureGap=4;fontFamily=Helvetica;fontSize=20;rounded=1;" vertex="1" parent="VEAYyaZn8zi7UT8q09-s-249">
          <mxGeometry width="30" height="30" as="geometry">
            <mxRectangle width="30" height="30" as="alternateBounds" />
          </mxGeometry>
        </mxCell>
        <mxCell id="VEAYyaZn8zi7UT8q09-s-251" value="UniqueID" style="shape=partialRectangle;connectable=0;fillColor=none;top=0;left=0;bottom=0;right=0;align=left;spacingLeft=6;fontStyle=0;overflow=hidden;whiteSpace=wrap;html=1;hachureGap=4;fontFamily=Helvetica;fontSize=20;rounded=1;" vertex="1" parent="VEAYyaZn8zi7UT8q09-s-249">
          <mxGeometry x="30" width="170" height="30" as="geometry">
            <mxRectangle width="170" height="30" as="alternateBounds" />
          </mxGeometry>
        </mxCell>
        <mxCell id="VEAYyaZn8zi7UT8q09-s-252" value="BIGSERIAL" style="shape=partialRectangle;connectable=0;fillColor=none;top=0;left=0;bottom=0;right=0;align=left;spacingLeft=6;fontStyle=0;overflow=hidden;whiteSpace=wrap;html=1;hachureGap=4;fontFamily=Helvetica;fontSize=20;rounded=1;" vertex="1" parent="VEAYyaZn8zi7UT8q09-s-249">
          <mxGeometry x="200" width="140" height="30" as="geometry">
            <mxRectangle width="140" height="30" as="alternateBounds" />
          </mxGeometry>
        </mxCell>
        <mxCell id="VEAYyaZn8zi7UT8q09-s-253" value="" style="shape=tableRow;horizontal=0;startSize=0;swimlaneHead=0;swimlaneBody=0;fillColor=none;collapsible=0;dropTarget=0;points=[[0,0.5],[1,0.5]];portConstraint=eastwest;top=0;left=0;right=0;bottom=0;hachureGap=4;fontFamily=Helvetica;fontSize=20;rounded=1;" vertex="1" parent="VEAYyaZn8zi7UT8q09-s-248">
          <mxGeometry y="60" width="340" height="30" as="geometry" />
        </mxCell>
        <mxCell id="VEAYyaZn8zi7UT8q09-s-254" value="" style="shape=partialRectangle;connectable=0;fillColor=none;top=0;left=0;bottom=0;right=0;editable=1;overflow=hidden;whiteSpace=wrap;html=1;hachureGap=4;fontFamily=Helvetica;fontSize=20;rounded=1;" vertex="1" parent="VEAYyaZn8zi7UT8q09-s-253">
          <mxGeometry width="30" height="30" as="geometry">
            <mxRectangle width="30" height="30" as="alternateBounds" />
          </mxGeometry>
        </mxCell>
        <mxCell id="VEAYyaZn8zi7UT8q09-s-255" value="amount" style="shape=partialRectangle;connectable=0;fillColor=none;top=0;left=0;bottom=0;right=0;align=left;spacingLeft=6;overflow=hidden;whiteSpace=wrap;html=1;hachureGap=4;fontFamily=Helvetica;fontSize=20;rounded=1;" vertex="1" parent="VEAYyaZn8zi7UT8q09-s-253">
          <mxGeometry x="30" width="170" height="30" as="geometry">
            <mxRectangle width="170" height="30" as="alternateBounds" />
          </mxGeometry>
        </mxCell>
        <mxCell id="VEAYyaZn8zi7UT8q09-s-256" value="INT" style="shape=partialRectangle;connectable=0;fillColor=none;top=0;left=0;bottom=0;right=0;align=left;spacingLeft=6;overflow=hidden;whiteSpace=wrap;html=1;hachureGap=4;fontFamily=Helvetica;fontSize=20;rounded=1;" vertex="1" parent="VEAYyaZn8zi7UT8q09-s-253">
          <mxGeometry x="200" width="140" height="30" as="geometry">
            <mxRectangle width="140" height="30" as="alternateBounds" />
          </mxGeometry>
        </mxCell>
        <mxCell id="VEAYyaZn8zi7UT8q09-s-261" value="" style="shape=tableRow;horizontal=0;startSize=0;swimlaneHead=0;swimlaneBody=0;fillColor=none;collapsible=0;dropTarget=0;points=[[0,0.5],[1,0.5]];portConstraint=eastwest;top=0;left=0;right=0;bottom=0;hachureGap=4;fontFamily=Helvetica;fontSize=20;rounded=1;" vertex="1" parent="VEAYyaZn8zi7UT8q09-s-248">
          <mxGeometry y="90" width="340" height="30" as="geometry" />
        </mxCell>
        <mxCell id="VEAYyaZn8zi7UT8q09-s-262" value="FK" style="shape=partialRectangle;connectable=0;fillColor=none;top=0;left=0;bottom=0;right=0;editable=1;overflow=hidden;whiteSpace=wrap;html=1;hachureGap=4;fontFamily=Helvetica;fontSize=20;rounded=1;" vertex="1" parent="VEAYyaZn8zi7UT8q09-s-261">
          <mxGeometry width="30" height="30" as="geometry">
            <mxRectangle width="30" height="30" as="alternateBounds" />
          </mxGeometry>
        </mxCell>
        <mxCell id="VEAYyaZn8zi7UT8q09-s-263" value="em_personal_id" style="shape=partialRectangle;connectable=0;fillColor=none;top=0;left=0;bottom=0;right=0;align=left;spacingLeft=6;overflow=hidden;whiteSpace=wrap;html=1;hachureGap=4;fontFamily=Helvetica;fontSize=20;rounded=1;" vertex="1" parent="VEAYyaZn8zi7UT8q09-s-261">
          <mxGeometry x="30" width="170" height="30" as="geometry">
            <mxRectangle width="170" height="30" as="alternateBounds" />
          </mxGeometry>
        </mxCell>
        <mxCell id="VEAYyaZn8zi7UT8q09-s-264" value="BIGINT" style="shape=partialRectangle;connectable=0;fillColor=none;top=0;left=0;bottom=0;right=0;align=left;spacingLeft=6;overflow=hidden;whiteSpace=wrap;html=1;hachureGap=4;fontFamily=Helvetica;fontSize=20;rounded=1;" vertex="1" parent="VEAYyaZn8zi7UT8q09-s-261">
          <mxGeometry x="200" width="140" height="30" as="geometry">
            <mxRectangle width="140" height="30" as="alternateBounds" />
          </mxGeometry>
        </mxCell>
        <mxCell id="VEAYyaZn8zi7UT8q09-s-257" value="" style="shape=tableRow;horizontal=0;startSize=0;swimlaneHead=0;swimlaneBody=0;fillColor=none;collapsible=0;dropTarget=0;points=[[0,0.5],[1,0.5]];portConstraint=eastwest;top=0;left=0;right=0;bottom=0;hachureGap=4;fontFamily=Helvetica;fontSize=20;rounded=1;" vertex="1" parent="VEAYyaZn8zi7UT8q09-s-248">
          <mxGeometry y="120" width="340" height="30" as="geometry" />
        </mxCell>
        <mxCell id="VEAYyaZn8zi7UT8q09-s-258" value="" style="shape=partialRectangle;connectable=0;fillColor=none;top=0;left=0;bottom=0;right=0;editable=1;overflow=hidden;whiteSpace=wrap;html=1;hachureGap=4;fontFamily=Helvetica;fontSize=20;rounded=1;" vertex="1" parent="VEAYyaZn8zi7UT8q09-s-257">
          <mxGeometry width="30" height="30" as="geometry">
            <mxRectangle width="30" height="30" as="alternateBounds" />
          </mxGeometry>
        </mxCell>
        <mxCell id="VEAYyaZn8zi7UT8q09-s-259" value="created_at" style="shape=partialRectangle;connectable=0;fillColor=none;top=0;left=0;bottom=0;right=0;align=left;spacingLeft=6;overflow=hidden;whiteSpace=wrap;html=1;hachureGap=4;fontFamily=Helvetica;fontSize=20;rounded=1;" vertex="1" parent="VEAYyaZn8zi7UT8q09-s-257">
          <mxGeometry x="30" width="170" height="30" as="geometry">
            <mxRectangle width="170" height="30" as="alternateBounds" />
          </mxGeometry>
        </mxCell>
        <mxCell id="VEAYyaZn8zi7UT8q09-s-260" value="TIMESTAMP" style="shape=partialRectangle;connectable=0;fillColor=none;top=0;left=0;bottom=0;right=0;align=left;spacingLeft=6;overflow=hidden;whiteSpace=wrap;html=1;hachureGap=4;fontFamily=Helvetica;fontSize=20;rounded=1;" vertex="1" parent="VEAYyaZn8zi7UT8q09-s-257">
          <mxGeometry x="200" width="140" height="30" as="geometry">
            <mxRectangle width="140" height="30" as="alternateBounds" />
          </mxGeometry>
        </mxCell>
        <mxCell id="VEAYyaZn8zi7UT8q09-s-265" value="" style="edgeStyle=orthogonalEdgeStyle;fontSize=12;html=1;endArrow=ERmandOne;startArrow=ERmandOne;rounded=1;exitX=1.003;exitY=0.095;exitDx=0;exitDy=0;exitPerimeter=0;" edge="1" parent="1" source="VEAYyaZn8zi7UT8q09-s-77" target="VEAYyaZn8zi7UT8q09-s-248">
          <mxGeometry width="100" height="100" relative="1" as="geometry">
            <mxPoint x="2027" y="420" as="sourcePoint" />
            <mxPoint x="2029" y="16" as="targetPoint" />
            <Array as="points">
              <mxPoint x="2010" y="293" />
              <mxPoint x="2010" y="70" />
            </Array>
          </mxGeometry>
        </mxCell>
        <mxCell id="VEAYyaZn8zi7UT8q09-s-266" value="em_salary_addition" style="shape=table;startSize=30;container=1;collapsible=1;childLayout=tableLayout;fixedRows=1;rowLines=0;fontStyle=1;align=center;resizeLast=1;html=1;hachureGap=4;fontFamily=Helvetica;fontSize=20;fillColor=#eeeeee;strokeColor=#36393d;rounded=1;" vertex="1" parent="1">
          <mxGeometry x="1620" y="-170" width="340" height="180" as="geometry" />
        </mxCell>
        <mxCell id="VEAYyaZn8zi7UT8q09-s-267" value="" style="shape=tableRow;horizontal=0;startSize=0;swimlaneHead=0;swimlaneBody=0;fillColor=none;collapsible=0;dropTarget=0;points=[[0,0.5],[1,0.5]];portConstraint=eastwest;top=0;left=0;right=0;bottom=1;hachureGap=4;fontFamily=Helvetica;fontSize=20;rounded=1;" vertex="1" parent="VEAYyaZn8zi7UT8q09-s-266">
          <mxGeometry y="30" width="340" height="30" as="geometry" />
        </mxCell>
        <mxCell id="VEAYyaZn8zi7UT8q09-s-268" value="PK" style="shape=partialRectangle;connectable=0;fillColor=none;top=0;left=0;bottom=0;right=0;fontStyle=1;overflow=hidden;whiteSpace=wrap;html=1;hachureGap=4;fontFamily=Helvetica;fontSize=20;rounded=1;" vertex="1" parent="VEAYyaZn8zi7UT8q09-s-267">
          <mxGeometry width="30" height="30" as="geometry">
            <mxRectangle width="30" height="30" as="alternateBounds" />
          </mxGeometry>
        </mxCell>
        <mxCell id="VEAYyaZn8zi7UT8q09-s-269" value="UniqueID" style="shape=partialRectangle;connectable=0;fillColor=none;top=0;left=0;bottom=0;right=0;align=left;spacingLeft=6;fontStyle=0;overflow=hidden;whiteSpace=wrap;html=1;hachureGap=4;fontFamily=Helvetica;fontSize=20;rounded=1;" vertex="1" parent="VEAYyaZn8zi7UT8q09-s-267">
          <mxGeometry x="30" width="170" height="30" as="geometry">
            <mxRectangle width="170" height="30" as="alternateBounds" />
          </mxGeometry>
        </mxCell>
        <mxCell id="VEAYyaZn8zi7UT8q09-s-270" value="BIGSERIAL" style="shape=partialRectangle;connectable=0;fillColor=none;top=0;left=0;bottom=0;right=0;align=left;spacingLeft=6;fontStyle=0;overflow=hidden;whiteSpace=wrap;html=1;hachureGap=4;fontFamily=Helvetica;fontSize=20;rounded=1;" vertex="1" parent="VEAYyaZn8zi7UT8q09-s-267">
          <mxGeometry x="200" width="140" height="30" as="geometry">
            <mxRectangle width="140" height="30" as="alternateBounds" />
          </mxGeometry>
        </mxCell>
        <mxCell id="VEAYyaZn8zi7UT8q09-s-271" value="" style="shape=tableRow;horizontal=0;startSize=0;swimlaneHead=0;swimlaneBody=0;fillColor=none;collapsible=0;dropTarget=0;points=[[0,0.5],[1,0.5]];portConstraint=eastwest;top=0;left=0;right=0;bottom=0;hachureGap=4;fontFamily=Helvetica;fontSize=20;rounded=1;" vertex="1" parent="VEAYyaZn8zi7UT8q09-s-266">
          <mxGeometry y="60" width="340" height="30" as="geometry" />
        </mxCell>
        <mxCell id="VEAYyaZn8zi7UT8q09-s-272" value="" style="shape=partialRectangle;connectable=0;fillColor=none;top=0;left=0;bottom=0;right=0;editable=1;overflow=hidden;whiteSpace=wrap;html=1;hachureGap=4;fontFamily=Helvetica;fontSize=20;rounded=1;" vertex="1" parent="VEAYyaZn8zi7UT8q09-s-271">
          <mxGeometry width="30" height="30" as="geometry">
            <mxRectangle width="30" height="30" as="alternateBounds" />
          </mxGeometry>
        </mxCell>
        <mxCell id="VEAYyaZn8zi7UT8q09-s-273" value="name" style="shape=partialRectangle;connectable=0;fillColor=none;top=0;left=0;bottom=0;right=0;align=left;spacingLeft=6;overflow=hidden;whiteSpace=wrap;html=1;hachureGap=4;fontFamily=Helvetica;fontSize=20;rounded=1;" vertex="1" parent="VEAYyaZn8zi7UT8q09-s-271">
          <mxGeometry x="30" width="170" height="30" as="geometry">
            <mxRectangle width="170" height="30" as="alternateBounds" />
          </mxGeometry>
        </mxCell>
        <mxCell id="VEAYyaZn8zi7UT8q09-s-274" value="TEXT" style="shape=partialRectangle;connectable=0;fillColor=none;top=0;left=0;bottom=0;right=0;align=left;spacingLeft=6;overflow=hidden;whiteSpace=wrap;html=1;hachureGap=4;fontFamily=Helvetica;fontSize=20;rounded=1;" vertex="1" parent="VEAYyaZn8zi7UT8q09-s-271">
          <mxGeometry x="200" width="140" height="30" as="geometry">
            <mxRectangle width="140" height="30" as="alternateBounds" />
          </mxGeometry>
        </mxCell>
        <mxCell id="VEAYyaZn8zi7UT8q09-s-283" value="" style="shape=tableRow;horizontal=0;startSize=0;swimlaneHead=0;swimlaneBody=0;fillColor=none;collapsible=0;dropTarget=0;points=[[0,0.5],[1,0.5]];portConstraint=eastwest;top=0;left=0;right=0;bottom=0;hachureGap=4;fontFamily=Helvetica;fontSize=20;rounded=1;" vertex="1" parent="VEAYyaZn8zi7UT8q09-s-266">
          <mxGeometry y="90" width="340" height="30" as="geometry" />
        </mxCell>
        <mxCell id="VEAYyaZn8zi7UT8q09-s-284" value="" style="shape=partialRectangle;connectable=0;fillColor=none;top=0;left=0;bottom=0;right=0;editable=1;overflow=hidden;whiteSpace=wrap;html=1;hachureGap=4;fontFamily=Helvetica;fontSize=20;rounded=1;" vertex="1" parent="VEAYyaZn8zi7UT8q09-s-283">
          <mxGeometry width="30" height="30" as="geometry">
            <mxRectangle width="30" height="30" as="alternateBounds" />
          </mxGeometry>
        </mxCell>
        <mxCell id="VEAYyaZn8zi7UT8q09-s-285" value="amount" style="shape=partialRectangle;connectable=0;fillColor=none;top=0;left=0;bottom=0;right=0;align=left;spacingLeft=6;overflow=hidden;whiteSpace=wrap;html=1;hachureGap=4;fontFamily=Helvetica;fontSize=20;rounded=1;" vertex="1" parent="VEAYyaZn8zi7UT8q09-s-283">
          <mxGeometry x="30" width="170" height="30" as="geometry">
            <mxRectangle width="170" height="30" as="alternateBounds" />
          </mxGeometry>
        </mxCell>
        <mxCell id="VEAYyaZn8zi7UT8q09-s-286" value="INT" style="shape=partialRectangle;connectable=0;fillColor=none;top=0;left=0;bottom=0;right=0;align=left;spacingLeft=6;overflow=hidden;whiteSpace=wrap;html=1;hachureGap=4;fontFamily=Helvetica;fontSize=20;rounded=1;" vertex="1" parent="VEAYyaZn8zi7UT8q09-s-283">
          <mxGeometry x="200" width="140" height="30" as="geometry">
            <mxRectangle width="140" height="30" as="alternateBounds" />
          </mxGeometry>
        </mxCell>
        <mxCell id="VEAYyaZn8zi7UT8q09-s-275" value="" style="shape=tableRow;horizontal=0;startSize=0;swimlaneHead=0;swimlaneBody=0;fillColor=none;collapsible=0;dropTarget=0;points=[[0,0.5],[1,0.5]];portConstraint=eastwest;top=0;left=0;right=0;bottom=0;hachureGap=4;fontFamily=Helvetica;fontSize=20;rounded=1;" vertex="1" parent="VEAYyaZn8zi7UT8q09-s-266">
          <mxGeometry y="120" width="340" height="30" as="geometry" />
        </mxCell>
        <mxCell id="VEAYyaZn8zi7UT8q09-s-276" value="FK" style="shape=partialRectangle;connectable=0;fillColor=none;top=0;left=0;bottom=0;right=0;editable=1;overflow=hidden;whiteSpace=wrap;html=1;hachureGap=4;fontFamily=Helvetica;fontSize=20;rounded=1;" vertex="1" parent="VEAYyaZn8zi7UT8q09-s-275">
          <mxGeometry width="30" height="30" as="geometry">
            <mxRectangle width="30" height="30" as="alternateBounds" />
          </mxGeometry>
        </mxCell>
        <mxCell id="VEAYyaZn8zi7UT8q09-s-277" value="em_salaryl_id" style="shape=partialRectangle;connectable=0;fillColor=none;top=0;left=0;bottom=0;right=0;align=left;spacingLeft=6;overflow=hidden;whiteSpace=wrap;html=1;hachureGap=4;fontFamily=Helvetica;fontSize=20;rounded=1;" vertex="1" parent="VEAYyaZn8zi7UT8q09-s-275">
          <mxGeometry x="30" width="170" height="30" as="geometry">
            <mxRectangle width="170" height="30" as="alternateBounds" />
          </mxGeometry>
        </mxCell>
        <mxCell id="VEAYyaZn8zi7UT8q09-s-278" value="BIGINT" style="shape=partialRectangle;connectable=0;fillColor=none;top=0;left=0;bottom=0;right=0;align=left;spacingLeft=6;overflow=hidden;whiteSpace=wrap;html=1;hachureGap=4;fontFamily=Helvetica;fontSize=20;rounded=1;" vertex="1" parent="VEAYyaZn8zi7UT8q09-s-275">
          <mxGeometry x="200" width="140" height="30" as="geometry">
            <mxRectangle width="140" height="30" as="alternateBounds" />
          </mxGeometry>
        </mxCell>
        <mxCell id="VEAYyaZn8zi7UT8q09-s-279" value="" style="shape=tableRow;horizontal=0;startSize=0;swimlaneHead=0;swimlaneBody=0;fillColor=none;collapsible=0;dropTarget=0;points=[[0,0.5],[1,0.5]];portConstraint=eastwest;top=0;left=0;right=0;bottom=0;hachureGap=4;fontFamily=Helvetica;fontSize=20;rounded=1;" vertex="1" parent="VEAYyaZn8zi7UT8q09-s-266">
          <mxGeometry y="150" width="340" height="30" as="geometry" />
        </mxCell>
        <mxCell id="VEAYyaZn8zi7UT8q09-s-280" value="" style="shape=partialRectangle;connectable=0;fillColor=none;top=0;left=0;bottom=0;right=0;editable=1;overflow=hidden;whiteSpace=wrap;html=1;hachureGap=4;fontFamily=Helvetica;fontSize=20;rounded=1;" vertex="1" parent="VEAYyaZn8zi7UT8q09-s-279">
          <mxGeometry width="30" height="30" as="geometry">
            <mxRectangle width="30" height="30" as="alternateBounds" />
          </mxGeometry>
        </mxCell>
        <mxCell id="VEAYyaZn8zi7UT8q09-s-281" value="created_at" style="shape=partialRectangle;connectable=0;fillColor=none;top=0;left=0;bottom=0;right=0;align=left;spacingLeft=6;overflow=hidden;whiteSpace=wrap;html=1;hachureGap=4;fontFamily=Helvetica;fontSize=20;rounded=1;" vertex="1" parent="VEAYyaZn8zi7UT8q09-s-279">
          <mxGeometry x="30" width="170" height="30" as="geometry">
            <mxRectangle width="170" height="30" as="alternateBounds" />
          </mxGeometry>
        </mxCell>
        <mxCell id="VEAYyaZn8zi7UT8q09-s-282" value="TIMESTAMP" style="shape=partialRectangle;connectable=0;fillColor=none;top=0;left=0;bottom=0;right=0;align=left;spacingLeft=6;overflow=hidden;whiteSpace=wrap;html=1;hachureGap=4;fontFamily=Helvetica;fontSize=20;rounded=1;" vertex="1" parent="VEAYyaZn8zi7UT8q09-s-279">
          <mxGeometry x="200" width="140" height="30" as="geometry">
            <mxRectangle width="140" height="30" as="alternateBounds" />
          </mxGeometry>
        </mxCell>
        <mxCell id="VEAYyaZn8zi7UT8q09-s-287" value="" style="edgeStyle=orthogonalEdgeStyle;fontSize=12;html=1;endArrow=ERzeroToMany;startArrow=ERmandOne;rounded=1;spacing=9;spacingRight=10;endSize=16;targetPerimeterSpacing=16;startSize=16;entryX=0.999;entryY=0.079;entryDx=0;entryDy=0;entryPerimeter=0;exitX=1;exitY=0.5;exitDx=0;exitDy=0;endFill=0;" edge="1" parent="1" source="VEAYyaZn8zi7UT8q09-s-249" target="VEAYyaZn8zi7UT8q09-s-266">
          <mxGeometry width="100" height="100" relative="1" as="geometry">
            <mxPoint x="2190" y="-119.93" as="sourcePoint" />
            <mxPoint x="2050" y="-120" as="targetPoint" />
            <Array as="points">
              <mxPoint x="2030" y="96" />
              <mxPoint x="2030" y="-156" />
            </Array>
          </mxGeometry>
        </mxCell>
        <mxCell id="VEAYyaZn8zi7UT8q09-s-288" value="em_work" style="shape=table;startSize=30;container=1;collapsible=1;childLayout=tableLayout;fixedRows=1;rowLines=0;fontStyle=1;align=center;resizeLast=1;html=1;hachureGap=4;fontFamily=Helvetica;fontSize=20;fillColor=#eeeeee;strokeColor=#36393d;rounded=1;" vertex="1" parent="1">
          <mxGeometry x="2090" y="220" width="340" height="240" as="geometry" />
        </mxCell>
        <mxCell id="VEAYyaZn8zi7UT8q09-s-289" value="" style="shape=tableRow;horizontal=0;startSize=0;swimlaneHead=0;swimlaneBody=0;fillColor=none;collapsible=0;dropTarget=0;points=[[0,0.5],[1,0.5]];portConstraint=eastwest;top=0;left=0;right=0;bottom=1;hachureGap=4;fontFamily=Helvetica;fontSize=20;rounded=1;" vertex="1" parent="VEAYyaZn8zi7UT8q09-s-288">
          <mxGeometry y="30" width="340" height="30" as="geometry" />
        </mxCell>
        <mxCell id="VEAYyaZn8zi7UT8q09-s-290" value="PK" style="shape=partialRectangle;connectable=0;fillColor=none;top=0;left=0;bottom=0;right=0;fontStyle=1;overflow=hidden;whiteSpace=wrap;html=1;hachureGap=4;fontFamily=Helvetica;fontSize=20;rounded=1;" vertex="1" parent="VEAYyaZn8zi7UT8q09-s-289">
          <mxGeometry width="30" height="30" as="geometry">
            <mxRectangle width="30" height="30" as="alternateBounds" />
          </mxGeometry>
        </mxCell>
        <mxCell id="VEAYyaZn8zi7UT8q09-s-291" value="UniqueID" style="shape=partialRectangle;connectable=0;fillColor=none;top=0;left=0;bottom=0;right=0;align=left;spacingLeft=6;fontStyle=0;overflow=hidden;whiteSpace=wrap;html=1;hachureGap=4;fontFamily=Helvetica;fontSize=20;rounded=1;" vertex="1" parent="VEAYyaZn8zi7UT8q09-s-289">
          <mxGeometry x="30" width="170" height="30" as="geometry">
            <mxRectangle width="170" height="30" as="alternateBounds" />
          </mxGeometry>
        </mxCell>
        <mxCell id="VEAYyaZn8zi7UT8q09-s-292" value="BIGSERIAL" style="shape=partialRectangle;connectable=0;fillColor=none;top=0;left=0;bottom=0;right=0;align=left;spacingLeft=6;fontStyle=0;overflow=hidden;whiteSpace=wrap;html=1;hachureGap=4;fontFamily=Helvetica;fontSize=20;rounded=1;" vertex="1" parent="VEAYyaZn8zi7UT8q09-s-289">
          <mxGeometry x="200" width="140" height="30" as="geometry">
            <mxRectangle width="140" height="30" as="alternateBounds" />
          </mxGeometry>
        </mxCell>
        <mxCell id="VEAYyaZn8zi7UT8q09-s-293" value="" style="shape=tableRow;horizontal=0;startSize=0;swimlaneHead=0;swimlaneBody=0;fillColor=none;collapsible=0;dropTarget=0;points=[[0,0.5],[1,0.5]];portConstraint=eastwest;top=0;left=0;right=0;bottom=0;hachureGap=4;fontFamily=Helvetica;fontSize=20;rounded=1;" vertex="1" parent="VEAYyaZn8zi7UT8q09-s-288">
          <mxGeometry y="60" width="340" height="30" as="geometry" />
        </mxCell>
        <mxCell id="VEAYyaZn8zi7UT8q09-s-294" value="" style="shape=partialRectangle;connectable=0;fillColor=none;top=0;left=0;bottom=0;right=0;editable=1;overflow=hidden;whiteSpace=wrap;html=1;hachureGap=4;fontFamily=Helvetica;fontSize=20;rounded=1;" vertex="1" parent="VEAYyaZn8zi7UT8q09-s-293">
          <mxGeometry width="30" height="30" as="geometry">
            <mxRectangle width="30" height="30" as="alternateBounds" />
          </mxGeometry>
        </mxCell>
        <mxCell id="VEAYyaZn8zi7UT8q09-s-295" value="position" style="shape=partialRectangle;connectable=0;fillColor=none;top=0;left=0;bottom=0;right=0;align=left;spacingLeft=6;overflow=hidden;whiteSpace=wrap;html=1;hachureGap=4;fontFamily=Helvetica;fontSize=20;rounded=1;" vertex="1" parent="VEAYyaZn8zi7UT8q09-s-293">
          <mxGeometry x="30" width="170" height="30" as="geometry">
            <mxRectangle width="170" height="30" as="alternateBounds" />
          </mxGeometry>
        </mxCell>
        <mxCell id="VEAYyaZn8zi7UT8q09-s-296" value="TEXT" style="shape=partialRectangle;connectable=0;fillColor=none;top=0;left=0;bottom=0;right=0;align=left;spacingLeft=6;overflow=hidden;whiteSpace=wrap;html=1;hachureGap=4;fontFamily=Helvetica;fontSize=20;rounded=1;" vertex="1" parent="VEAYyaZn8zi7UT8q09-s-293">
          <mxGeometry x="200" width="140" height="30" as="geometry">
            <mxRectangle width="140" height="30" as="alternateBounds" />
          </mxGeometry>
        </mxCell>
        <mxCell id="VEAYyaZn8zi7UT8q09-s-305" value="" style="shape=tableRow;horizontal=0;startSize=0;swimlaneHead=0;swimlaneBody=0;fillColor=none;collapsible=0;dropTarget=0;points=[[0,0.5],[1,0.5]];portConstraint=eastwest;top=0;left=0;right=0;bottom=0;hachureGap=4;fontFamily=Helvetica;fontSize=20;rounded=1;" vertex="1" parent="VEAYyaZn8zi7UT8q09-s-288">
          <mxGeometry y="90" width="340" height="30" as="geometry" />
        </mxCell>
        <mxCell id="VEAYyaZn8zi7UT8q09-s-306" value="" style="shape=partialRectangle;connectable=0;fillColor=none;top=0;left=0;bottom=0;right=0;editable=1;overflow=hidden;whiteSpace=wrap;html=1;hachureGap=4;fontFamily=Helvetica;fontSize=20;rounded=1;" vertex="1" parent="VEAYyaZn8zi7UT8q09-s-305">
          <mxGeometry width="30" height="30" as="geometry">
            <mxRectangle width="30" height="30" as="alternateBounds" />
          </mxGeometry>
        </mxCell>
        <mxCell id="VEAYyaZn8zi7UT8q09-s-307" value="duty_from" style="shape=partialRectangle;connectable=0;fillColor=none;top=0;left=0;bottom=0;right=0;align=left;spacingLeft=6;overflow=hidden;whiteSpace=wrap;html=1;hachureGap=4;fontFamily=Helvetica;fontSize=20;rounded=1;" vertex="1" parent="VEAYyaZn8zi7UT8q09-s-305">
          <mxGeometry x="30" width="170" height="30" as="geometry">
            <mxRectangle width="170" height="30" as="alternateBounds" />
          </mxGeometry>
        </mxCell>
        <mxCell id="VEAYyaZn8zi7UT8q09-s-308" value="TIME" style="shape=partialRectangle;connectable=0;fillColor=none;top=0;left=0;bottom=0;right=0;align=left;spacingLeft=6;overflow=hidden;whiteSpace=wrap;html=1;hachureGap=4;fontFamily=Helvetica;fontSize=20;rounded=1;" vertex="1" parent="VEAYyaZn8zi7UT8q09-s-305">
          <mxGeometry x="200" width="140" height="30" as="geometry">
            <mxRectangle width="140" height="30" as="alternateBounds" />
          </mxGeometry>
        </mxCell>
        <mxCell id="VEAYyaZn8zi7UT8q09-s-309" value="" style="shape=tableRow;horizontal=0;startSize=0;swimlaneHead=0;swimlaneBody=0;fillColor=none;collapsible=0;dropTarget=0;points=[[0,0.5],[1,0.5]];portConstraint=eastwest;top=0;left=0;right=0;bottom=0;hachureGap=4;fontFamily=Helvetica;fontSize=20;rounded=1;" vertex="1" parent="VEAYyaZn8zi7UT8q09-s-288">
          <mxGeometry y="120" width="340" height="30" as="geometry" />
        </mxCell>
        <mxCell id="VEAYyaZn8zi7UT8q09-s-310" value="" style="shape=partialRectangle;connectable=0;fillColor=none;top=0;left=0;bottom=0;right=0;editable=1;overflow=hidden;whiteSpace=wrap;html=1;hachureGap=4;fontFamily=Helvetica;fontSize=20;rounded=1;" vertex="1" parent="VEAYyaZn8zi7UT8q09-s-309">
          <mxGeometry width="30" height="30" as="geometry">
            <mxRectangle width="30" height="30" as="alternateBounds" />
          </mxGeometry>
        </mxCell>
        <mxCell id="VEAYyaZn8zi7UT8q09-s-311" value="duty_to" style="shape=partialRectangle;connectable=0;fillColor=none;top=0;left=0;bottom=0;right=0;align=left;spacingLeft=6;overflow=hidden;whiteSpace=wrap;html=1;hachureGap=4;fontFamily=Helvetica;fontSize=20;rounded=1;" vertex="1" parent="VEAYyaZn8zi7UT8q09-s-309">
          <mxGeometry x="30" width="170" height="30" as="geometry">
            <mxRectangle width="170" height="30" as="alternateBounds" />
          </mxGeometry>
        </mxCell>
        <mxCell id="VEAYyaZn8zi7UT8q09-s-312" value="TIME" style="shape=partialRectangle;connectable=0;fillColor=none;top=0;left=0;bottom=0;right=0;align=left;spacingLeft=6;overflow=hidden;whiteSpace=wrap;html=1;hachureGap=4;fontFamily=Helvetica;fontSize=20;rounded=1;" vertex="1" parent="VEAYyaZn8zi7UT8q09-s-309">
          <mxGeometry x="200" width="140" height="30" as="geometry">
            <mxRectangle width="140" height="30" as="alternateBounds" />
          </mxGeometry>
        </mxCell>
        <mxCell id="VEAYyaZn8zi7UT8q09-s-297" value="" style="shape=tableRow;horizontal=0;startSize=0;swimlaneHead=0;swimlaneBody=0;fillColor=none;collapsible=0;dropTarget=0;points=[[0,0.5],[1,0.5]];portConstraint=eastwest;top=0;left=0;right=0;bottom=0;hachureGap=4;fontFamily=Helvetica;fontSize=20;rounded=1;" vertex="1" parent="VEAYyaZn8zi7UT8q09-s-288">
          <mxGeometry y="150" width="340" height="30" as="geometry" />
        </mxCell>
        <mxCell id="VEAYyaZn8zi7UT8q09-s-298" value="FK" style="shape=partialRectangle;connectable=0;fillColor=none;top=0;left=0;bottom=0;right=0;editable=1;overflow=hidden;whiteSpace=wrap;html=1;hachureGap=4;fontFamily=Helvetica;fontSize=20;rounded=1;" vertex="1" parent="VEAYyaZn8zi7UT8q09-s-297">
          <mxGeometry width="30" height="30" as="geometry">
            <mxRectangle width="30" height="30" as="alternateBounds" />
          </mxGeometry>
        </mxCell>
        <mxCell id="VEAYyaZn8zi7UT8q09-s-299" value="em_personal_id" style="shape=partialRectangle;connectable=0;fillColor=none;top=0;left=0;bottom=0;right=0;align=left;spacingLeft=6;overflow=hidden;whiteSpace=wrap;html=1;hachureGap=4;fontFamily=Helvetica;fontSize=20;rounded=1;" vertex="1" parent="VEAYyaZn8zi7UT8q09-s-297">
          <mxGeometry x="30" width="170" height="30" as="geometry">
            <mxRectangle width="170" height="30" as="alternateBounds" />
          </mxGeometry>
        </mxCell>
        <mxCell id="VEAYyaZn8zi7UT8q09-s-300" value="BIGINT" style="shape=partialRectangle;connectable=0;fillColor=none;top=0;left=0;bottom=0;right=0;align=left;spacingLeft=6;overflow=hidden;whiteSpace=wrap;html=1;hachureGap=4;fontFamily=Helvetica;fontSize=20;rounded=1;" vertex="1" parent="VEAYyaZn8zi7UT8q09-s-297">
          <mxGeometry x="200" width="140" height="30" as="geometry">
            <mxRectangle width="140" height="30" as="alternateBounds" />
          </mxGeometry>
        </mxCell>
        <mxCell id="VEAYyaZn8zi7UT8q09-s-313" value="" style="shape=tableRow;horizontal=0;startSize=0;swimlaneHead=0;swimlaneBody=0;fillColor=none;collapsible=0;dropTarget=0;points=[[0,0.5],[1,0.5]];portConstraint=eastwest;top=0;left=0;right=0;bottom=0;hachureGap=4;fontFamily=Helvetica;fontSize=20;rounded=1;" vertex="1" parent="VEAYyaZn8zi7UT8q09-s-288">
          <mxGeometry y="180" width="340" height="30" as="geometry" />
        </mxCell>
        <mxCell id="VEAYyaZn8zi7UT8q09-s-314" value="FK" style="shape=partialRectangle;connectable=0;fillColor=none;top=0;left=0;bottom=0;right=0;editable=1;overflow=hidden;whiteSpace=wrap;html=1;hachureGap=4;fontFamily=Helvetica;fontSize=20;rounded=1;" vertex="1" parent="VEAYyaZn8zi7UT8q09-s-313">
          <mxGeometry width="30" height="30" as="geometry">
            <mxRectangle width="30" height="30" as="alternateBounds" />
          </mxGeometry>
        </mxCell>
        <mxCell id="VEAYyaZn8zi7UT8q09-s-315" value="manager" style="shape=partialRectangle;connectable=0;fillColor=none;top=0;left=0;bottom=0;right=0;align=left;spacingLeft=6;overflow=hidden;whiteSpace=wrap;html=1;hachureGap=4;fontFamily=Helvetica;fontSize=20;rounded=1;" vertex="1" parent="VEAYyaZn8zi7UT8q09-s-313">
          <mxGeometry x="30" width="170" height="30" as="geometry">
            <mxRectangle width="170" height="30" as="alternateBounds" />
          </mxGeometry>
        </mxCell>
        <mxCell id="VEAYyaZn8zi7UT8q09-s-316" value="BIGINT" style="shape=partialRectangle;connectable=0;fillColor=none;top=0;left=0;bottom=0;right=0;align=left;spacingLeft=6;overflow=hidden;whiteSpace=wrap;html=1;hachureGap=4;fontFamily=Helvetica;fontSize=20;rounded=1;" vertex="1" parent="VEAYyaZn8zi7UT8q09-s-313">
          <mxGeometry x="200" width="140" height="30" as="geometry">
            <mxRectangle width="140" height="30" as="alternateBounds" />
          </mxGeometry>
        </mxCell>
        <mxCell id="VEAYyaZn8zi7UT8q09-s-301" value="" style="shape=tableRow;horizontal=0;startSize=0;swimlaneHead=0;swimlaneBody=0;fillColor=none;collapsible=0;dropTarget=0;points=[[0,0.5],[1,0.5]];portConstraint=eastwest;top=0;left=0;right=0;bottom=0;hachureGap=4;fontFamily=Helvetica;fontSize=20;rounded=1;" vertex="1" parent="VEAYyaZn8zi7UT8q09-s-288">
          <mxGeometry y="210" width="340" height="30" as="geometry" />
        </mxCell>
        <mxCell id="VEAYyaZn8zi7UT8q09-s-302" value="" style="shape=partialRectangle;connectable=0;fillColor=none;top=0;left=0;bottom=0;right=0;editable=1;overflow=hidden;whiteSpace=wrap;html=1;hachureGap=4;fontFamily=Helvetica;fontSize=20;rounded=1;" vertex="1" parent="VEAYyaZn8zi7UT8q09-s-301">
          <mxGeometry width="30" height="30" as="geometry">
            <mxRectangle width="30" height="30" as="alternateBounds" />
          </mxGeometry>
        </mxCell>
        <mxCell id="VEAYyaZn8zi7UT8q09-s-303" value="created_at" style="shape=partialRectangle;connectable=0;fillColor=none;top=0;left=0;bottom=0;right=0;align=left;spacingLeft=6;overflow=hidden;whiteSpace=wrap;html=1;hachureGap=4;fontFamily=Helvetica;fontSize=20;rounded=1;" vertex="1" parent="VEAYyaZn8zi7UT8q09-s-301">
          <mxGeometry x="30" width="170" height="30" as="geometry">
            <mxRectangle width="170" height="30" as="alternateBounds" />
          </mxGeometry>
        </mxCell>
        <mxCell id="VEAYyaZn8zi7UT8q09-s-304" value="TIMESTAMP" style="shape=partialRectangle;connectable=0;fillColor=none;top=0;left=0;bottom=0;right=0;align=left;spacingLeft=6;overflow=hidden;whiteSpace=wrap;html=1;hachureGap=4;fontFamily=Helvetica;fontSize=20;rounded=1;" vertex="1" parent="VEAYyaZn8zi7UT8q09-s-301">
          <mxGeometry x="200" width="140" height="30" as="geometry">
            <mxRectangle width="140" height="30" as="alternateBounds" />
          </mxGeometry>
        </mxCell>
        <mxCell id="VEAYyaZn8zi7UT8q09-s-317" value="" style="edgeStyle=orthogonalEdgeStyle;fontSize=12;html=1;endArrow=ERmandOne;startArrow=ERmandOne;rounded=1;" edge="1" parent="1" source="VEAYyaZn8zi7UT8q09-s-77" target="VEAYyaZn8zi7UT8q09-s-297">
          <mxGeometry width="100" height="100" relative="1" as="geometry">
            <mxPoint x="1971" y="303" as="sourcePoint" />
            <mxPoint x="1970" y="80" as="targetPoint" />
            <Array as="points">
              <mxPoint x="2020" y="303" />
              <mxPoint x="2020" y="380" />
            </Array>
          </mxGeometry>
        </mxCell>
        <mxCell id="VEAYyaZn8zi7UT8q09-s-318" value="" style="edgeStyle=orthogonalEdgeStyle;fontSize=12;html=1;endArrow=ERmandOne;startArrow=ERmandOne;rounded=1;" edge="1" parent="1" source="VEAYyaZn8zi7UT8q09-s-77" target="VEAYyaZn8zi7UT8q09-s-313">
          <mxGeometry width="100" height="100" relative="1" as="geometry">
            <mxPoint x="1970" y="313" as="sourcePoint" />
            <mxPoint x="2100" y="390" as="targetPoint" />
            <Array as="points">
              <mxPoint x="2030" y="313" />
              <mxPoint x="2030" y="415" />
            </Array>
          </mxGeometry>
        </mxCell>
      </root>
    </mxGraphModel>
  </diagram>
</mxfile>
